<?xml version="1.0" encoding="UTF-8" standalone="no"?>
<!-- Created with Inkscape (http://www.inkscape.org/) -->

<svg
   xmlns:dc="http://purl.org/dc/elements/1.1/"
   xmlns:cc="http://creativecommons.org/ns#"
   xmlns:rdf="http://www.w3.org/1999/02/22-rdf-syntax-ns#"
   xmlns="http://www.w3.org/2000/svg"
   xmlns:sodipodi="http://sodipodi.sourceforge.net/DTD/sodipodi-0.dtd"
   xmlns:inkscape="http://www.inkscape.org/namespaces/inkscape"
   version="1.1"
   width="385.6933"
   height="340.95001"
   id="svg2"
   xml:space="preserve"
   inkscape:version="0.48.2 r9819"
   sodipodi:docname="UK traffic sign 506.1LRR.svg"><sodipodi:namedview
     pagecolor="#ffffff"
     bordercolor="#666666"
     borderopacity="1"
     objecttolerance="10"
     gridtolerance="10"
     guidetolerance="10"
     inkscape:pageopacity="0"
     inkscape:pageshadow="2"
     inkscape:window-width="640"
     inkscape:window-height="480"
     id="namedview9"
     showgrid="false"
     inkscape:zoom="0.69157509"
     inkscape:cx="193.16233"
     inkscape:cy="170.51245"
     inkscape:window-x="0"
     inkscape:window-y="24"
     inkscape:window-maximized="0"
     inkscape:current-layer="svg2" /><defs
     id="defs10" /><metadata
     id="metadata8"><rdf:RDF><cc:Work
         rdf:about=""><dc:format>image/svg+xml</dc:format><dc:type
           rdf:resource="http://purl.org/dc/dcmitype/StillImage" /></cc:Work></rdf:RDF></metadata><g
     transform="matrix(1.25,0,0,-1.25,-2.4626695,341.06256)"
     id="g10"><path
       d="m 290.55,0.090042 c 6.86,0.21884 13.52,3.8748 17.28,10.32 3.655,6.402 3.491,13.998 0.12,20.04 L 173.79,263.01004 c -3.628,5.906 -10.124,9.846 -17.52,9.84 -7.439,0.006 -13.935,-3.934 -17.52,-9.84 L 4.47,30.450042 c -3.2909,-6.042 -3.4552,-13.638 0.24,-20.04 3.7218,-6.4452 10.383,-10.101 17.28,-10.32 h 268.56"
       inkscape:connector-curvature="0"
       id="path12"
       style="fill:#ec1d24" /><path
       d="M 156.27,238.41 34.23,27.09 H 278.31 L 156.27,238.41"
       inkscape:connector-curvature="0"
       id="path14"
       style="fill:#ffffff" /><path
       d="m 216.99,108.33 -22.8,22.8 h -45.36 v 33.96 H 125.91 V 85.89 H 91.59 V 62.73 h 34.32 V 36.09 h 45.72 v 49.44 h 22.56 l 22.8,22.8"
       inkscape:connector-curvature="0"
       id="path16" /></g></svg>