<?xml version="1.0" encoding="UTF-8" standalone="no"?>
<!-- Created with Inkscape (http://www.inkscape.org/) -->

<svg
   xmlns:dc="http://purl.org/dc/elements/1.1/"
   xmlns:cc="http://creativecommons.org/ns#"
   xmlns:rdf="http://www.w3.org/1999/02/22-rdf-syntax-ns#"
   xmlns="http://www.w3.org/2000/svg"
   xmlns:sodipodi="http://sodipodi.sourceforge.net/DTD/sodipodi-0.dtd"
   xmlns:inkscape="http://www.inkscape.org/namespaces/inkscape"
   version="1.1"
   width="385.64417"
   height="340.9375"
   id="svg2"
   xml:space="preserve"
   inkscape:version="0.48.2 r9819"
   sodipodi:docname="AJAX1.svg"><sodipodi:namedview
     pagecolor="#ffffff"
     bordercolor="#666666"
     borderopacity="1"
     objecttolerance="10"
     gridtolerance="10"
     guidetolerance="10"
     inkscape:pageopacity="0"
     inkscape:pageshadow="2"
     inkscape:window-width="1280"
     inkscape:window-height="1004"
     id="namedview8"
     showgrid="false"
     fit-margin-top="0"
     fit-margin-left="0"
     fit-margin-right="0"
     fit-margin-bottom="0"
     inkscape:zoom="0.39333333"
     inkscape:cx="-60.057925"
     inkscape:cy="299.76562"
     inkscape:window-x="-8"
     inkscape:window-y="-8"
     inkscape:window-maximized="1"
     inkscape:current-layer="svg2" /><defs
     id="defs16" /><metadata
     id="metadata4"><rdf:RDF><cc:Work
         rdf:about=""><dc:format>image/svg+xml</dc:format><dc:type
           rdf:resource="http://purl.org/dc/dcmitype/StillImage" /><dc:title /></cc:Work></rdf:RDF></metadata><path
     inkscape:connector-curvature="0"
     style="fill:#e31018;fill-opacity:1;fill-rule:nonzero;stroke:none"
     d="m 360.69374,340.9375 c 8.535,-0.17125 16.86,-4.74125 21.5625,-12.8125 4.5675,-7.98625 4.3625,-17.47875 0.3125,-25 L 214.75624,12.5 c -4.56625,-7.45361 -12.685,-12.37793 -21.875,-12.5 -9.35125,0.12207 -17.47,5.04639 -21.875,12.5 L 3.1928696,303.125 c -4.2065375,7.52125 -4.411625,17.01375 0.3125,25 4.5459,8.07125 12.8711254,12.64125 21.5625004,12.8125 l 335.62587,0 z"
     id="path11" /><path
     inkscape:connector-curvature="0"
     style="fill:#ffffff;fill-rule:nonzero;stroke:none"
     d="m 192.88036,43.125 -152.49999,264.0625 304.99999,0 -152.5,-264.0625 z"
     id="path13" /><path
     style="fill:#000000;fill-rule:nonzero;stroke:none"
     d="m 126.56883,176.88973 45.25,0 0,-39.75 28.25,0 0,39.75 42.74875,0 28.5,28.25 -28.5,28.24875 -27.74875,0 0,62.49875 -57.5,0 0,-90.7475 -31,0 0,-28.25"
     id="path19"
     inkscape:connector-curvature="0" /></svg>