<?xml version="1.0" encoding="UTF-8" standalone="no"?>
<!-- Created with Inkscape (http://www.inkscape.org/) -->

<svg
   xmlns:dc="http://purl.org/dc/elements/1.1/"
   xmlns:cc="http://creativecommons.org/ns#"
   xmlns:rdf="http://www.w3.org/1999/02/22-rdf-syntax-ns#"
   xmlns="http://www.w3.org/2000/svg"
   xmlns:sodipodi="http://sodipodi.sourceforge.net/DTD/sodipodi-0.dtd"
   xmlns:inkscape="http://www.inkscape.org/namespaces/inkscape"
   version="1.1"
   width="360.26767"
   height="318.20004"
   id="svg2816"
   xml:space="preserve"
   inkscape:version="0.48.4 r9939"
   sodipodi:docname="AJAX.svg"><metadata
     id="metadata81"><rdf:RDF><cc:Work
         rdf:about=""><dc:format>image/svg+xml</dc:format><dc:type
           rdf:resource="http://purl.org/dc/dcmitype/StillImage" /><dc:title></dc:title></cc:Work></rdf:RDF></metadata><sodipodi:namedview
     pagecolor="#ffffff"
     bordercolor="#666666"
     borderopacity="1"
     objecttolerance="10"
     gridtolerance="10"
     guidetolerance="10"
     inkscape:pageopacity="0"
     inkscape:pageshadow="2"
     inkscape:window-width="1920"
     inkscape:window-height="1057"
     id="namedview79"
     showgrid="false"
     fit-margin-top="0.1"
     fit-margin-left="0.1"
     fit-margin-right="0.1"
     fit-margin-bottom="0.1"
     inkscape:zoom="2.0000001"
     inkscape:cx="170.99255"
     inkscape:cy="97.618931"
     inkscape:window-x="-8"
     inkscape:window-y="-8"
     inkscape:window-maximized="1"
     inkscape:current-layer="svg2816"
     showguides="true"
     inkscape:guide-bbox="true" /><defs
     id="defs2820"><clipPath
       id="clipPath2832"><path
         d="m -0.24,595.138 317.48,0 0,-595.276 -317.48,0 0,595.276 z"
         id="path2834"
         inkscape:connector-curvature="0" /></clipPath><clipPath
       id="clipPath2840"><path
         d="m 0.03,595.32 317.46,0 0,-595.32 -317.46,0 0,595.32 z"
         id="path2842"
         inkscape:connector-curvature="0" /></clipPath><clipPath
       id="clipPath2858"><path
         d="m -0.24,595.138 317.48,0 0,-595.276 -317.48,0 0,595.276 z"
         id="path2860"
         inkscape:connector-curvature="0" /></clipPath><clipPath
       id="clipPath2864"><path
         d="m 0.03,595.32 317.46,0 0,-595.32 -317.46,0 0,595.32 z"
         id="path2866"
         inkscape:connector-curvature="0" /></clipPath><clipPath
       id="clipPath3306"><path
         d="m 199.238,472.977 0,-29.74 29.744,0 0,29.74"
         id="path3308"
         inkscape:connector-curvature="0" /></clipPath><clipPath
       id="clipPath3322"><path
         d="m -0.24,595.138 317.48,0 0,-595.276 -317.48,0 0,595.276 z"
         id="path3324"
         inkscape:connector-curvature="0" /></clipPath><clipPath
       id="clipPath3330"><path
         d="m 0.03,595.32 317.46,0 0,-595.32 -317.46,0 0,595.32 z"
         id="path3332"
         inkscape:connector-curvature="0" /></clipPath><clipPath
       id="clipPath3344"><path
         d="m 88.233,387.221 0,-28.335 32.08,0 0,28.335"
         id="path3346"
         inkscape:connector-curvature="0" /></clipPath><clipPath
       id="clipPath3462"><path
         d="m -0.24,595.138 317.48,0 0,-595.276 -317.48,0 0,595.276 z"
         id="path3464"
         inkscape:connector-curvature="0" /></clipPath><clipPath
       id="clipPath3470"><path
         d="m 0.03,595.32 317.46,0 0,-595.32 -317.46,0 0,595.32 z"
         id="path3472"
         inkscape:connector-curvature="0" /></clipPath><clipPath
       id="clipPath3490"><path
         d="m -0.24,595.138 317.48,0 0,-595.276 -317.48,0 0,595.276 z"
         id="path3492"
         inkscape:connector-curvature="0" /></clipPath><clipPath
       id="clipPath3496"><path
         d="m 0.03,595.32 317.46,0 0,-595.32 -317.46,0 0,595.32 z"
         id="path3498"
         inkscape:connector-curvature="0" /></clipPath><clipPath
       id="clipPath3520"><path
         d="m 254.788,326.215 0,-28.309 28.326,0 0,28.309"
         id="path3522"
         inkscape:connector-curvature="0" /></clipPath><clipPath
       id="clipPath3544"><path
         d="m 145.049,326.142 0,-28.333 28.342,0 0,28.333"
         id="path3546"
         inkscape:connector-curvature="0" /></clipPath><clipPath
       id="clipPath3682"><path
         d="m -0.24,595.138 317.48,0 0,-595.276 -317.48,0 0,595.276 z"
         id="path3684"
         inkscape:connector-curvature="0" /></clipPath><clipPath
       id="clipPath3690"><path
         d="m 0.03,595.32 317.46,0 0,-595.32 -317.46,0 0,595.32 z"
         id="path3692"
         inkscape:connector-curvature="0" /></clipPath><clipPath
       id="clipPath3980"><path
         d="m -0.24,595.138 317.48,0 0,-595.276 -317.48,0 0,595.276 z"
         id="path3982"
         inkscape:connector-curvature="0" /></clipPath><clipPath
       id="clipPath3988"><path
         d="m 0.03,595.32 317.46,0 0,-595.32 -317.46,0 0,595.32 z"
         id="path3990"
         inkscape:connector-curvature="0" /></clipPath><clipPath
       id="clipPath4010"><path
         d="m -0.24,595.138 317.48,0 0,-595.276 -317.48,0 0,595.276 z"
         id="path4012"
         inkscape:connector-curvature="0" /></clipPath><clipPath
       id="clipPath4016"><path
         d="m 0.03,595.32 317.46,0 0,-595.32 -317.46,0 0,595.32 z"
         id="path4018"
         inkscape:connector-curvature="0" /></clipPath><clipPath
       id="clipPath4062"><path
         d="m 200.163,177.773 0,-28.284 28.283,0 0,28.284"
         id="path4064"
         inkscape:connector-curvature="0" /></clipPath><clipPath
       id="clipPath4090"><path
         d="m 34.886,177.515 0,-51.632 30.367,0 0,51.632"
         id="path4092"
         inkscape:connector-curvature="0" /></clipPath><clipPath
       id="clipPath4106"><path
         d="m 34.886,177.515 0,-51.632 30.367,0 0,51.632"
         id="path4108"
         inkscape:connector-curvature="0" /></clipPath><clipPath
       id="clipPath4272"><path
         d="m 34.886,177.515 0,-51.632 30.367,0 0,51.632"
         id="path4274"
         inkscape:connector-curvature="0" /></clipPath><clipPath
       id="clipPath4304"><path
         d="m 254.653,176.442 0,-48.167 28.317,0 0,48.167"
         id="path4306"
         inkscape:connector-curvature="0" /></clipPath><clipPath
       id="clipPath4310"><path
         d="m 253.565,177.983 31.181,0 0,-49.183 -31.181,0 0,49.183 z"
         id="path4312"
         inkscape:connector-curvature="0" /></clipPath><clipPath
       id="clipPath4316"><path
         d="m -0.24,595.138 317.48,0 0,-595.276 -317.48,0 0,595.276 z"
         id="path4318"
         inkscape:connector-curvature="0" /></clipPath><clipPath
       id="clipPath4322"><path
         d="m 0.03,595.32 317.46,0 0,-595.32 -317.46,0 0,595.32 z"
         id="path4324"
         inkscape:connector-curvature="0" /></clipPath><clipPath
       id="clipPath4456"><path
         d="m -0.24,595.138 317.48,0 0,-595.276 -317.48,0 0,595.276 z"
         id="path4458"
         inkscape:connector-curvature="0" /></clipPath><clipPath
       id="clipPath4464"><path
         d="m 0.03,595.32 317.46,0 0,-595.32 -317.46,0 0,595.32 z"
         id="path4466"
         inkscape:connector-curvature="0" /></clipPath></defs><path
     style="fill:#ec1d24;fill-opacity:1;fill-rule:evenodd;stroke:none"
     d="m 23.977595,318.10005 c -8.5855,0 -16.45648,-4.5216 -20.6875,-11.90625 -4.25346,-7.37342 -4.25346,-16.47912 0,-23.875 L 159.4463,11.975043 c 4.27596,-7.3733997 12.09806,-11.87498967 20.59376,-11.87498967 0.0312,0 0.0625,-1.2e-4 0.0937,0 0.0312,-1.2e-4 0.0625,0 0.0937,0 8.49572,0 16.31784,4.50157997 20.59375,11.87498967 L 356.97757,282.3188 c 4.25347,7.39588 4.25347,16.50158 0,23.875 -4.23102,7.38465 -12.10199,11.90625 -20.6875,11.90625 z"
     id="path3101"
     inkscape:connector-curvature="0"
     sodipodi:nodetypes="scccscscccss" /><path
     inkscape:connector-curvature="0"
     style="fill:#ffffff;fill-opacity:1;fill-rule:evenodd;stroke:none"
     id="path3121"
     d="m 37.755005,286.28316 284.757825,0 L 180.13381,39.806513 z"
     sodipodi:nodetypes="cccc" /><path
     inkscape:connector-curvature="0"
     style="fill:#000000;fill-rule:nonzero;stroke:none"
     d="m 139.9899,227.11672 c 0,0 -1.73188,-3.94811 -5.83521,-5.2517 -4.18153,-1.02584 -7.64532,-0.45982 -11.08693,-7.00227 l -2.91761,-4.95993 c 0,0 -0.79126,-1.87896 -3.7929,-2.62585 -3.21229,-0.54736 -7.3539,-1.71207 -9.04518,-1.45882 -2.27141,0.0502 -4.07555,-0.55901 -7.00227,2.91762 -2.438885,2.78222 -40.554795,69.14739 -40.554795,69.14739 l 91.613585,0 c 0,0 2.42278,-0.34778 1.75056,-2.3341 -0.6232,-2.15669 -11.67043,-41.43008 -11.67043,-41.43008 l 12.83749,-8.16931 c 0,0 0.90679,1.72722 4.66817,0 3.65984,-1.72373 4.95995,-2.62585 4.95995,-2.62585 0,0 2.15902,-0.16222 2.04232,-4.66818 1.30942,-0.89279 14.87924,-9.33636 14.87924,-9.33636 0,0 -4.73763,11.77782 -5.25112,16.92215 -0.34895,5.38474 -2.04232,40.84657 -2.04232,40.84657 0,0 0.0525,2.59316 -1.75057,3.20937 -1.82059,0.42013 -9.91988,2.62584 -9.91988,2.62584 0,0 -2.42979,0.46916 -2.33409,2.33409 -0.0957,1.75874 0.76908,2.44963 1.75056,2.3341 1.08884,0.11553 26.84144,0 26.84144,0 0,0 2.72389,0.46098 3.20938,-2.91762 0.37929,-3.52447 5.2517,-38.80423 5.2517,-38.80423 0,0 -2.11235,-0.5345 -2.04233,-2.62585 -0.07,-2.22206 -0.07,-3.86175 0.58352,-4.66817 0.72825,-0.91964 8.48325,-9.89889 13.71278,-22.46562 0.90913,-1.75407 1.51249,-0.11437 1.75056,0.29177 0.10621,0.45631 10.20465,27.98572 11.37869,28.88435 1.24057,1.17171 28.50974,23.26387 29.17612,23.63265 0.54151,0.49366 2.2699,1.70156 2.33409,5.54347 -0.0641,3.92593 -1.6187,7.03144 -2.62585,8.1693 -1.06318,1.27909 -2.78924,3.00514 -2.91761,3.79291 0.12837,0.76557 0.90445,1.28257 1.4588,1.16704 0.65355,0.11553 4.19086,0.11553 4.66818,0 0.21357,0.11553 4.87473,0.46098 8.16931,-5.25171 3.26306,-5.67884 9.33636,-15.7551 9.33636,-15.7551 0,0 1.26274,-2.09134 -0.58352,-3.20937 -1.9513,-1.29775 -4.97161,-1.98864 -6.71051,-3.7929 -1.88594,-1.9933 -19.31809,-22.09916 -19.548,-22.46561 -0.28709,-0.32443 -2.53015,-2.74022 -5.2517,-1.4588 -0.99082,-1.1087 -2.04232,-2.62585 -2.04232,-2.62585 0,0 -4.90159,-30.11326 -10.21164,-42.8889 1.25457,-0.72706 2.9176,-2.04232 2.9176,-2.04232 0,0 4.11851,3.73221 7.5858,0 3.60733,-3.86176 3.34941,-3.77655 2.62585,-5.54346 -0.4855,-1.68405 -0.74342,-2.20222 -2.04233,-2.91761 -1.11686,-0.66522 -3.10317,-2.65036 -3.20937,-6.12699 0.1062,-3.42644 -1.36077,-12.83282 -2.91762,-16.92214 -1.72138,-3.84891 -2.23839,-8.251 -8.46107,-11.08692 -9.69814,-4.2387 -22.77371,-6.82954 -32.38549,-4.37641 -2.54299,0.72356 -11.0134,6.95324 -11.67044,7.29402 -0.8963,0.52284 -4.21363,1.89878 -3.79232,-1.16705 0.53568,-6.36505 -5.11282,-17.89895 -15.17157,-17.79742 -12.33683,-0.10153 -14.20527,11.76964 -14.2963,13.12925 0.091,6.22968 4.57715,14.03837 17.21391,15.17157 0,0 2.37959,0.42013 2.33409,2.04233 0.0455,1.48448 0.0455,0.96631 -0.87529,1.75056 -0.63254,0.94181 -7.13765,6.98944 -7.29402,8.46108 -0.67456,7.66864 1.00831,17.44149 2.62585,23.04913 0,0 1.7914,4.72653 0.29176,8.16931 -1.4343,3.28873 -7.82037,19.3391 -8.46108,20.42328 -1.40746,2.6702 -1.99798,4.95761 -1.16704,8.16932 -0.48666,0.48899 -11.08693,7.29402 -11.08693,7.29402 z"
     id="path15" /><path
     inkscape:connector-curvature="0"
     style="fill:#ffffff;fill-rule:nonzero;stroke:none"
     d="m 224.30888,174.01618 2.62585,-1.4588 -6.71051,-24.50793 c 0,0 -0.97798,-1.7704 -2.62585,-2.04232 -1.4588,-0.0735 -8.75283,0 -8.75283,0 0,0 -2.54182,0.0501 -0.87529,2.33408 2.5605,3.63302 15.09573,22.73753 16.33864,25.67497 z"
     id="path17" /><path
     inkscape:connector-curvature="0"
     style="fill:#ffffff;fill-rule:nonzero;stroke:none"
     d="m 184.3376,199.10765 3.79289,-7.87755 c 0,0 0.59986,-2.10652 0,-2.62585 -4.26554,-6.2542 -9.40054,-10.67613 -11.9622,-12.25397 -0.84844,-0.40264 -2.05516,-0.38629 -1.75057,1.16705 1.61519,9.32467 -1.08068,21.05581 -8.46108,30.92668 -1.14019,1.69337 -0.38163,2.42628 0.8753,1.75057 1.33276,-0.87763 17.50566,-11.08693 17.50566,-11.08693 z"
     id="path19" /></svg>