<?xml version="1.0" encoding="UTF-8" standalone="no"?>
<!-- Created with Inkscape (http://www.inkscape.org/) -->

<svg
   xmlns:dc="http://purl.org/dc/elements/1.1/"
   xmlns:cc="http://creativecommons.org/ns#"
   xmlns:rdf="http://www.w3.org/1999/02/22-rdf-syntax-ns#"
   xmlns="http://www.w3.org/2000/svg"
   xmlns:sodipodi="http://sodipodi.sourceforge.net/DTD/sodipodi-0.dtd"
   xmlns:inkscape="http://www.inkscape.org/namespaces/inkscape"
   version="1.1"
   width="385.54614"
   height="340.79999"
   id="svg2"
   xml:space="preserve"
   inkscape:version="0.48.2 r9819"
   sodipodi:docname="UK traffic sign 551.1.svg"><sodipodi:namedview
     pagecolor="#ffffff"
     bordercolor="#666666"
     borderopacity="1"
     objecttolerance="10"
     gridtolerance="10"
     guidetolerance="10"
     inkscape:pageopacity="0"
     inkscape:pageshadow="2"
     inkscape:window-width="640"
     inkscape:window-height="480"
     id="namedview20"
     showgrid="false"
     inkscape:zoom="0.69157509"
     inkscape:cx="192.77619"
     inkscape:cy="170.36249"
     inkscape:window-x="0"
     inkscape:window-y="24"
     inkscape:window-maximized="0"
     inkscape:current-layer="svg2" /><defs
     id="defs21" /><metadata
     id="metadata8"><rdf:RDF><cc:Work
         rdf:about=""><dc:format>image/svg+xml</dc:format><dc:type
           rdf:resource="http://purl.org/dc/dcmitype/StillImage" /></cc:Work></rdf:RDF></metadata><g
     transform="matrix(1.25,0,0,-1.25,-3.4738088,341.06251)"
     id="g10"><path
       d="m 291.21,0.21001 c 6.885,0.15912 13.543,3.8133 17.28,10.2 3.677,6.454 3.512,14.047 0.24,20.16 l -134.28,232.44 c -3.544,5.847 -10.037,9.786 -17.4,9.84 -7.465,-0.054 -13.959,-3.993 -17.52,-9.84 L 5.25,30.57001 c -3.2524,-6.113 -3.4166,-13.706 0.24,-20.16 3.7571,-6.3867 10.415,-10.041 17.28,-10.2 h 268.44"
       inkscape:connector-curvature="0"
       id="path12"
       style="fill:#ec1d24" /><path
       d="M 157.05,238.41 35.01,27.09 H 278.97 L 157.05,238.41"
       inkscape:connector-curvature="0"
       id="path14"
       style="fill:#ffffff" /><path
       d="m 194.61,140.61 c -1.884,-0.026 -2.576,-1.018 -3,-0.96 -0.544,0.173 -0.982,0.196 -1.32,0.24 -2.314,-0.044 -4.366,-3.296 -6.12,-3.36 -1.844,-0.12 -2.074,0.549 -2.64,0.6 -0.633,-0.051 -1.463,-1.112 -2.04,-1.08 -1.153,-0.032 -1.822,2.343 -3.96,2.4 -1.459,-0.057 -1.251,-0.449 -2.16,-0.48 -0.89,0.031 -1.628,0.999 -3.24,0.96 -3,0.039 -3.461,-2.636 -4.44,-2.64 -0.704,0.004 -0.543,0.35 -1.08,0.36 -1.077,-0.01 -1.169,-1.047 -2.04,-1.08 -0.79,0.033 -1.274,0.494 -1.8,0.48 -1.964,0.014 -2.771,-1.162 -4.32,-1.2 -2.21,0.038 -1.588,0.868 -3.96,0.84 -2.47,0.028 -1.848,-0.433 -3.84,-0.48 -2.735,0.047 -2.873,1.615 -4.8,1.56 -1.947,0.055 -0.979,-0.06 -2.04,-0.12 -2.052,0.06 -0.922,1.351 -4.08,1.32 -4.475,0.031 -3.667,-3.866 -7.44,-3.84 -4.506,-0.026 -4.216,-2.257 -5.88,-2.64 -2.094,-0.376 -1.283,-1.436 -2.16,-1.68 -0.891,-0.183 -2.225,1.055 -3.84,-0.96 -0.812,-1.134 -0.604,-1.641 -2.16,-2.16 -1.102,-0.24 -2.707,0.363 -3.36,-1.32 -0.503,-1.366 -1.772,-1.62 -2.16,-1.8 -0.488,-0.235 -2.586,-0.927 -3.48,-3.6 -0.661,-2.114 -1.425,-1.648 -2.52,-2.4 -0.829,-0.53 -2.49,-1.357 -4.44,-4.92 -1.001,-1.79 -0.414,-1.37 -2.64,-3.24 -0.759,-0.556 -4.288,-3.577 -4.68,-3.84 -0.299,-0.244 -2.213,-1.513 -2.16,-3.48 -0.053,-3.89 4.835,-4.789 4.8,-11.28 0.035,-4.209 1.673,-5.477 2.04,-6 2.039,-3.168 5.207,-8.081 7.92,-10.68 0.575,-0.496 1.236,-1.372 0.6,-2.04 -0.624,-0.593 -1.393,0.022 -1.56,0.24 -2.165,2.114 -12.137,8.621 -15.84,8.64 -1.595,-0.019 -1.657,-0.387 -2.4,-0.36 -2.116,-0.027 -4.945,1.879 -6.72,1.92 -1.73,-0.041 -2.806,-0.656 -2.76,-1.56 -0.046,-1.002 1.922,-3.954 2.52,-5.16 0.509,-1.192 2.692,-6.819 2.64,-8.52 0.052,-1.742 1.62,-2.081 2.28,-2.52 0.693,-0.483 3.152,-1.774 4.08,-5.4 1.766,-6.306 5.956,-11.962 9.24,-14.52 1.208,-0.948 1.793,-1.624 2.04,-2.28 0.306,-0.758 0.767,-3.372 2.4,-4.08 1.626,-0.706 6.515,-2.182 6.96,-2.4 0.539,-0.151 1.707,0.064 0.96,1.2 -0.729,1.017 -2.803,4.051 -3.12,4.44 -0.222,0.42 -0.314,1.158 0,1.44 0.301,0.271 1.254,0.425 1.68,0 0.312,-0.436 3.048,-2.004 4.68,-2.04 1.689,-0.026 2.088,-0.517 2.52,-0.96 0.368,-0.48 0.983,-1.556 3.12,-1.56 3.428,0.004 7.302,-2.579 10.68,-2.52 2.125,-0.059 3.786,0.987 4.44,1.2 0.698,0.094 1.682,0.586 1.68,1.2 0.002,0.616 -0.182,1.169 -1.56,1.44 -1.267,0.344 -12.427,3.603 -12.84,3.72 -0.448,0.129 -1.002,0.314 -0.96,0.84 -0.042,0.458 0.42,0.55 1.08,0.6 0.754,0.011 2.691,0.288 3.36,0.48 0.622,0.116 1.483,0.577 1.44,1.56 0.043,2.302 -5.353,2.614 -6.12,2.64 -0.693,-0.026 -3.122,-0.456 -3.12,0.72 -0.002,1.837 2.704,0.945 2.76,2.88 -0.056,1.083 -0.671,1.232 -1.32,1.2 -0.612,0.032 -2.641,-0.89 -4.44,-0.84 -1.706,-0.05 -2.567,0.503 -3.48,0.96 -0.87,0.465 -5.851,3.509 -6.48,3.84 -0.663,0.407 -1.032,1.022 -0.48,1.68 0.432,0.695 1.047,0.695 1.8,0.24 0.661,-0.344 4.29,-2.404 9.96,-2.4 4.414,-0.004 4.322,-1.388 6.84,-1.44 2.401,0.052 2.401,3.834 2.4,5.76 0.001,1.948 -1.075,6.129 -2.04,7.68 -0.879,1.585 -4.461,9.32 -5.16,10.56 -0.424,0.756 -2.038,3.893 -2.04,5.88 0.002,1.887 -0.09,5.161 0.36,5.88 0.472,0.757 0.795,1.126 1.2,1.08 0.333,-0.046 0.748,-0.507 0.84,-1.44 0.585,-3.578 1.201,-8.89 3.12,-13.68 0.524,-1.206 0.807,-1.93 0.84,-2.4 0.145,-0.421 0.468,-1.435 1.32,-1.92 0.9,-0.53 5.927,-2.974 6.36,-3.24 0.397,-0.38 2.75,-1.118 5.76,-0.48 2.893,0.561 5.844,0.838 6.96,0.72 1.098,-0.066 1.421,-0.159 1.92,-0.12 0.516,0.146 0.746,0.238 1.56,0.24 0.754,0.09 1.861,0.69 1.2,2.4 -0.722,1.703 -1.414,4.516 -1.56,5.16 -0.223,0.74 -0.223,0.97 -0.48,1.44 -0.204,0.36 -0.112,1.513 0.48,2.16 0.699,0.552 0.607,1.152 0.6,1.68 0.007,0.579 0.191,4.96 0.12,5.4 -0.021,0.483 0.21,1.543 0.72,2.04 0.597,0.518 1.657,1.348 1.92,1.68 0.198,0.406 0.706,0.821 1.08,0.6 0.456,-0.332 0.779,-0.978 0.72,-1.68 -0.033,-0.682 -0.126,-1.558 -0.36,-1.8 -0.227,-0.311 -0.457,-0.911 -0.6,-1.56 -0.134,-0.55 -1.287,-6.407 -1.32,-6.84 -0.152,-0.49 -1.04,-2.08 0,-4.08 0.217,-0.514 1.37,-4.112 3.72,-6.24 2.262,-2.022 11.901,-10.047 12.36,-10.56 0.556,-0.409 2.585,-2.715 5.88,-2.76 3.3,0.045 3.9,1.152 6.12,1.2 1.561,-0.048 14.752,-2.493 17.76,-2.52 0.989,0.027 1.972,0.12 1.92,1.32 0.052,0.506 -1.008,1.936 -2.52,2.52 -1.44,0.522 -5.775,2.275 -6.24,2.4 -0.458,0.152 -1.103,0.428 -1.2,0.84 0.005,0.511 0.327,0.649 0.84,0.72 0.41,0.114 5.16,1.221 5.76,1.44 0.691,0.242 3.09,1.026 3.12,2.4 -0.03,1.301 -4.781,2.454 -6.24,2.4 -1.492,0.054 -3.983,-0.592 -5.76,-0.6 -1.82,0.008 -2.789,0.331 -3.48,0.48 -0.046,0.497 -0.508,4.186 -0.6,4.44 0,0.299 -0.138,1.176 -0.72,1.2 -0.671,-0.024 -0.963,-0.424 -1.2,-0.72 -0.294,-0.411 -2.231,-2.579 -2.52,-2.76 -0.172,-0.095 -0.541,-0.511 -0.84,0 -0.346,0.412 -3.16,3.686 -3.6,3.96 -0.39,0.372 -0.682,1.018 -0.24,1.8 0.496,1.016 6.062,7.446 6.96,8.52 0.915,1.121 1.66,1.612 3,2.52 1.143,0.907 12.304,8.286 12.96,8.76 0.728,0.356 1.097,0.725 1.32,1.08 0.33,0.383 0.468,0.429 0.84,0.72 0.366,0.262 0.92,0.769 1.08,1.08 0.116,0.335 0.67,1.027 1.08,1.44 0.42,0.325 0.973,0.694 1.2,0.96 0.235,0.379 0.88,0.979 1.44,1.2 1.052,0.658 6.254,5.111 7.08,6.36 0.431,0.567 1.169,1.121 0.72,1.8 -0.566,0.705 -1.396,0.843 -1.92,0.48 -0.49,-0.375 -2.058,-2.22 -3.36,-3.24 -1.373,-0.917 -5.201,-3.961 -5.64,-4.32 -0.391,-0.379 -1.683,-1.901 -4.56,-1.92 -2.426,0.019 -3.718,-1.503 -4.32,-2.16 -0.689,-0.634 -1.842,-2.571 -4.32,-3.36 -2.411,-0.779 -9.79,-4.33 -10.56,-4.56 -0.798,-0.324 -1.443,-0.6 -1.68,-0.24 -0.225,0.378 0.052,0.747 0.48,0.96 5.484,2.743 7.373,3.569 12.36,7.68 2.645,2.316 7.153,4.787 11.16,5.64 3.893,0.774 4.062,0.584 6.36,3.6 0.758,1.06 1.164,1.67 3.24,2.4 0.673,0.252 3.255,1.635 3.72,1.8 0.365,0.204 1.288,0.712 0.96,2.88 -0.41,2.167 -2.163,7.471 -3.24,8.4 -2.596,2.424 -2.614,2.784 -3.36,5.64 -0.405,1.317 -1.512,7.774 -8.76,7.8"
       inkscape:connector-curvature="0"
       id="path16" /><path
       d="m 193.89,95.13 c 0,0 -4.392,-1.296 -6.12,-2.52 -1.839,-1.113 -3.622,-2.112 -3.84,-2.28 -0.243,-0.201 -0.981,-0.662 -1.56,-0.72 -0.528,0.058 -1.681,-0.357 -0.72,-1.32 0.884,-1.066 1.576,-1.896 1.8,-2.16 0.237,-0.29 0.975,-1.212 -0.12,-2.04 -1.119,-0.74 -3.517,-2.308 -3.72,-2.52 -0.166,-0.25 -0.535,-0.619 -0.84,-0.84 -0.248,-0.147 -0.94,-1.669 0.48,-1.8 1.347,-0.238 1.947,-0.192 2.88,0.12 1.004,0.333 2.94,0.795 3.36,0.84 0.503,-0.045 1.102,-0.045 1.08,-0.72 -0.07,-0.617 0.115,-3.661 0.24,-4.32 0.059,-0.54 0.428,-1.278 0.84,-1.32 0.511,0.042 0.787,0.365 1.2,0.96 0.417,0.512 1.801,1.942 2.76,1.92 0.978,0.022 1.762,-0.762 1.92,-1.08 0.211,-0.42 2.563,-3.326 2.76,-3.6 0.172,-0.187 0.633,-1.063 0.84,-1.56 1.588,-3.092 4.624,-5.446 7.56,-7.32 0.765,-0.438 1.273,-0.531 1.68,-0.12 0.515,0.512 0.398,1.36 -0.12,1.92 -0.472,0.529 -2.778,3.296 -3.12,3.96 -0.304,0.627 -0.719,0.996 -1.08,1.44 -0.377,0.386 -2.59,3.384 -2.28,8.4 0.612,0.103 1.857,0.196 3,0.6 1.256,0.333 4.576,1.164 5.52,1.08 0.901,-0.101 2.515,-0.193 3.48,0.12 0.88,0.24 1.249,0.379 1.2,0.96 0.049,0.618 -0.274,1.402 -1.08,1.68 -0.854,0.275 -4.867,1.244 -6.96,0.96 -2.15,-0.27 -3.533,-0.085 -4.68,1.32 -1.067,1.454 -2.451,3.161 -3,3.72 -0.465,0.455 -2.064,2.7 -3.36,6.24"
       inkscape:connector-curvature="0"
       id="path18" /><path
       d="m 162.69,108.45 c -0.587,-0.058 -1.002,-0.888 -1.2,-1.08 -0.263,-0.177 -0.77,-0.776 -0.72,-1.2 0.042,-0.406 -0.097,-1.882 -0.12,-2.16 0.023,-0.368 -0.069,-1.06 -0.24,-1.32 -0.29,-0.293 -0.705,-1.215 -0.84,-1.44 -0.142,-0.144 -0.465,-0.56 -0.24,-0.96 0.329,-0.43 1.021,-1.583 2.4,0.12 1.296,1.802 1.895,2.402 1.8,4.08 0.003,1.735 -0.182,3.902 -0.84,3.96"
       inkscape:connector-curvature="0"
       id="path20"
       style="fill:#ffffff" /><path
       d="m 150.57,106.41 c -0.688,-0.047 -3.548,-0.831 -3.6,-1.32 0.052,-0.525 1.62,-2.186 2.04,-2.16 0.503,-0.026 2.855,3.433 1.56,3.48"
       inkscape:connector-curvature="0"
       id="path22"
       style="fill:#ffffff" /><path
       d="m 143.25,109.41 c -0.471,-0.049 -3.376,-0.972 -3.36,-1.68 -0.016,-0.675 0.998,-2.105 1.32,-2.16 0.324,0.055 4.244,1.208 4.2,1.8 0.044,0.607 -1.57,1.991 -2.16,2.04"
       inkscape:connector-curvature="0"
       id="path24"
       style="fill:#ffffff" /><path
       d="m 141.81,115.41 c -0.368,-0.054 -2.72,-0.93 -2.76,-1.56 0.04,-0.661 1.608,-1.999 3.24,-2.04 0.351,0.041 1.596,1.548 1.56,1.92 0.036,0.381 -1.67,1.626 -2.04,1.68"
       inkscape:connector-curvature="0"
       id="path26"
       style="fill:#ffffff" /><path
       d="m 131.73,110.85 c -0.619,0.033 -2.925,-0.336 -2.88,-0.96 -0.045,-0.667 1.938,-0.99 2.64,-0.96 0.774,-0.03 2.019,0.154 2.04,0.48 -0.021,0.32 -1.589,1.473 -1.8,1.44"
       inkscape:connector-curvature="0"
       id="path28"
       style="fill:#ffffff" /><path
       d="m 143.85,101.85 c -0.379,-0.053 -4.022,-0.514 -4.08,-1.32 0.058,-0.762 2.225,-1.823 2.88,-1.8 0.729,-0.023 1.052,0.623 1.2,0.96 0.221,0.401 0.497,0.678 0.84,0.84 0.303,0.114 0.395,0.529 0.36,0.72 -0.149,0.271 -0.611,0.547 -1.2,0.6"
       inkscape:connector-curvature="0"
       id="path30"
       style="fill:#ffffff" /><path
       d="m 174.93,118.29 c -0.352,-0.005 -2.266,-1.919 -2.28,-3.96 0.014,-1.971 0.983,-3.562 1.68,-3.6 0.379,0.038 0.594,0.46 0.6,0.72 -0.006,0.217 -0.513,1.808 -0.48,2.88 -0.033,1.096 0.982,2.94 0.96,3.24 0.022,0.3 -0.117,0.715 -0.48,0.72"
       inkscape:connector-curvature="0"
       id="path32"
       style="fill:#ffffff" /><path
       d="m 181.05,120.45 c -0.707,-0.044 -4.327,-1.404 -4.32,-3 -0.007,-0.541 0.4,-0.871 0.96,-0.84 1.108,-0.031 1.293,1.629 4.2,1.68 1.717,-0.051 1.391,-0.328 2.04,-0.36 0.472,0.032 0.702,0.124 0.72,0.6 -0.018,0.401 -1.678,1.876 -3.6,1.92"
       inkscape:connector-curvature="0"
       id="path34"
       style="fill:#ffffff" /><path
       d="m 184.65,114.81 c -0.963,0.039 -1.171,-1.736 -3,-1.68 -1.353,-0.056 -3.29,0.705 -3.72,0.72 -0.4,-0.015 -0.665,-0.396 -0.72,-0.72 0.055,-0.748 2.418,-1.371 4.08,-1.32 2.259,-0.051 3.85,1.563 3.84,2.52 0.01,0.265 0.102,0.519 -0.48,0.48"
       inkscape:connector-curvature="0"
       id="path36"
       style="fill:#ffffff" /><path
       d="m 186.93,119.61 c -0.338,0.012 -0.66,-0.38 -0.72,-0.72 0.06,-0.72 0.89,-2.219 0.84,-3.12 0.05,-0.99 -0.504,-2.627 -0.48,-3.24 -0.024,-0.494 0.218,-0.736 0.72,-0.72 1.101,-0.016 1.562,2.647 1.56,3.84 0.002,1.551 -1.058,3.972 -1.92,3.96"
       inkscape:connector-curvature="0"
       id="path38"
       style="fill:#ffffff" /></g></svg>