<?xml version="1.0" encoding="UTF-8" standalone="no"?>
<!-- Created with Inkscape (http://www.inkscape.org/) -->

<svg
   xmlns:dc="http://purl.org/dc/elements/1.1/"
   xmlns:cc="http://creativecommons.org/ns#"
   xmlns:rdf="http://www.w3.org/1999/02/22-rdf-syntax-ns#"
   xmlns="http://www.w3.org/2000/svg"
   xmlns:inkscape="http://www.inkscape.org/namespaces/inkscape"
   version="1.1"
   width="340.88"
   height="340.88"
   id="svg2"
   xml:space="preserve"><defs
     id="defs12" /><metadata
     id="metadata8"><rdf:RDF><cc:Work
         rdf:about=""><dc:format>image/svg+xml</dc:format><dc:type
           rdf:resource="http://purl.org/dc/dcmitype/StillImage" /><dc:title /></cc:Work></rdf:RDF></metadata><g
     transform="matrix(1.25,0,0,-1.25,-2.0312,341.03)"
     id="g10"><g
       transform="scale(0.1,0.1)"
       id="g12"><path
         d="m 1380.2,2728.2 c 752.66,0.03 1363,-610.34 1363,-1363 C 2743.23,612.04 2132.86,1.7 1380.2,1.2 627.04,1.66875 16.7,612.04 16.2,1365.2 c 0.4688,752.66 610.84,1363 1364,1363"
         inkscape:connector-curvature="0"
         id="path14"
         style="fill:#ec1d24" /><path
         d="m 1380.2,2457.2 c 602.7,-0.49 1091.5,-489.3 1092,-1092 -0.49,-603.2 -489.3,-1092 -1092,-1092 -603.2,-0.004 -1092,488.8 -1092,1092 -0.008,602.7 488.8,1091.5 1092,1092"
         inkscape:connector-curvature="0"
         id="path16"
         style="fill:#ffffff" /><path
         d="m 1449.2,2031.2 c 0,0 -33.48,23.04 -1,38 26.75,12.75 23,33 23,33 v 40 h 28 c 0,0 3.18,2.89 0,6 -4.04,2.51 -21,17 -21,17 0,0 -12.33,74.98 -72,75 -57.26,-0.02 -66,-55 -66,-55 l -6,-57 11,-5 c 0,0 -2.16,-38.87 12,-54 3.55,-4.36 5.55,-15.59 -2,-20 -6.89,-4.42 -38.39,-20.27 -50,-44 -49.18,-97.84 -58.2,-170.86 -58,-226 -0.2,-64.5 6.37,-111.81 16,-150 1.85,-7.72 5.46,-20.96 -11,-15 -16.04,6.08 -108.12,33.76 -176,34 -68.14,-0.24 -139.16,-18.29 -213,-50 0,0 -35.09,3.42 -56,3 -93.844,0.42 -129.95,-12.42 -167,-54 -41.594,-46.31 -75.098,-100.43 -75,-174 -0.098,-94.57 -31.195,-181.44 -97,-181 -7.82,-0.44 -19,4 -19,4 0,0 19.605,-41.75 82,-42 114.83,0.25 164.89,177.29 158,241 -13.961,125.77 87.754,162.48 121,164 0,0 -33.246,-68.32 -33,-154 -0.246,-86.45 43.086,-156.27 42,-189 -1.32,-32.26 -15,-56 -15,-56 0,0 -38.082,-22.61 -42,-26 -4.508,-2.63 -9.922,-6.23 -9,-21 0,0 6.812,-169.39 0,-209 -4.535,-23.594 -11.758,-30.816 -15,-34 -3.98,-2.836 -6.387,-4.941 -5,-9 1.02,-4.973 -3.492,-19.414 -15,-19 -11.363,-0.414 -37,11 -37,11 0,0 -16.191,-52.641 6,-107 0,0 6.094,-3.117 19,-3 37.352,-0.117 71.754,21.449 89,55 4.32,9.582 4.32,23.723 1,34 -3.898,9.586 -2.996,19.816 -2,29 0.809,10.074 11.43,110.3 12,116 0.469,5.867 0.543,13.844 7,20 27.242,24.48 26.016,25.97 36,63 2.781,10.39 10,32 10,32 0,0 119.57,54.62 126,58 6.41,3.04 15.24,3.44 18,1 2.05,-3.18 6.87,-8.39 2,-17 -5.562,-9.04 -23.617,-38.73 -26,-45 -5.797,-19.9 -7.098,-25.02 9,-52 38.33,-64.18 63.32,-153.32 66,-215 -0.09,-8.391 1.54,-33.941 30,-30 10.53,0.734 23.77,2.34 29,-3 4.4,-5.895 2.79,-10.707 2,-16 -0.01,-5.141 2,-42.457 13,-56 5.05,-2.105 76.46,-5.715 93,-4 6.84,1.066 8.71,13.156 4,21 -34.75,60.691 -57.2,92.758 -113,128 -19.45,12.645 -21.44,23.562 -23,56 -1.33,42.73 -10.21,74.699 -17,120 -1.54,7.51 -5.96,17.14 7,34 20.85,26.46 28,70.56 25,119 -0.64,6.18 0.16,10.99 5,15 9.45,6.71 21.73,15.7 29,30 3.07,4.91 10.29,9.73 22,4 11.57,-6.31 125.92,-61.68 290,-62 138.65,0.32 222,34 222,34 0,0 -4.76,-54.93 2,-94 1.91,-10.1 -0.49,-13.11 -3,-18 -51.39,-87.5 -55.67,-117.3 -56,-178 0.33,-10.5 -1.68,-45.809 -11,-59 -9.13,-13.289 -19.96,-34.152 -22,-41 -1.98,-5.992 -6.79,-21.641 9,-31 16.3,-9.902 18.71,-11.504 19,-23 -0.29,-11.777 -1.09,-10.973 -4,-15 0,0 -14.75,-19.246 -19,-29 0,0 25.12,-13.516 59,-14 33.53,0.484 49.58,10.113 55,13 5.81,2.73 11.03,5.938 5,16 -6.01,9.199 -38.11,59.754 -42,67 -9.02,17.277 -11.36,23.734 -11,44 -0.36,7.336 0,31 0,31 0,0 -1.16,4.422 5,16 19.79,33.82 53.43,98.391 85,137 10.75,13.12 25.2,35.99 26,62 0.12,34.68 22.42,72.52 37,86 4.73,4.34 15.96,11.57 30,-1 13.25,-12.31 122.18,-103.19 150,-133 35.21,-37.32 51.39,-55.121 65,-98 3.48,-11.215 9.7,-30.879 11,-40 2.1,-15.805 2.65,-26.332 11,-37 4.15,-5.234 17.39,-17.27 5,-24 -12.49,-6.109 -20.91,-10.523 -33,-24 0,0 -5.41,-31.812 39,-80 5.18,-5.227 11.08,-1.246 17,6 11.81,16.395 41.06,85.73 45,117 0.56,6.988 2.57,16.617 -7,34 -9.69,17.926 -52.63,103.79 -56,111 -3.04,6.43 -6.65,19.27 -7,31 -1.79,20.28 -16.64,47.94 -30,63 -6.97,7.52 -130.55,135.52 -134,140 -11.64,14.39 -13.55,22.05 -6,42 15.2,39.78 19.88,102.57 20,112 -0.12,9.23 -0.92,27.69 12,41 17.96,19.57 56.04,84.95 67,172 0.73,6.48 1.95,13.85 9,15 4.57,-0.09 6.98,-2.9 10,-6 13.75,-13.67 27.82,-28.35 49,-35 6.96,-1.63 25.41,-6.84 23,-23 -1.6,-16.74 -9.22,-59.27 22,-75 0,0 7.7,12.52 11,15 0,0 19.17,-15.72 27,-18 8.21,-2.54 17.45,-2.94 23,7 4.87,10.12 12.9,32.99 15,37 1.91,3.21 6.32,11.64 2,30 -5.3,19.36 -22.16,80.75 -22,147 -0.16,18.8 4.66,51.3 5,65 -0.34,12.79 -22.81,70.16 -25,75 -1.82,5.59 -3.83,16.43 12,17 16.27,0.23 19,1 19,1 0,0 -18.38,12.47 -22,13 -2.8,1.08 -8.82,5.49 -4,11 4.01,4.92 8.43,10.54 11,15 2.24,5.17 0.64,16 -13,11 -13.65,-5.43 -67.01,-25.89 -71,-28 -4.04,-1.91 -10.05,-3.91 -23,-3 -13.54,1.5 -16.35,5.11 -55,5 -69.78,0.11 -136.18,-22.76 -168,-44 -66.26,-44.15 -120.35,-80.47 -175,-135 -2.93,-3.05 -11.95,-11.48 -23,-5 -11.82,6.76 -20.25,6.16 -29,6 -9.31,0.16 -20.74,2.57 -31,12 -10.2,9.83 -61.36,51.96 -69,57 -6.8,4.59 -14.03,7.59 -13,32 3.29,64.04 -14.92,132.37 -29,182 -2.72,10.86 -2.92,23.7 -22,36"
         inkscape:connector-curvature="0"
         id="path18" /><path
         d="m 1502.2,1710.2 c -3.75,1.87 -13.86,6.07 -18,1 -4.89,-4.55 0.83,-15.69 3,-19 2.04,-2.71 26.42,-52.06 29,-59 2.83,-6.9 11.56,-20.45 28,-8 15.46,11.63 27.5,19.15 34,22 6.73,3.17 9.75,12.5 3,15 -7.7,2.91 -12.21,7.43 -16,13 -2.84,5.26 -11.26,11.58 -15,13 -4.69,0.99 -45.31,21.45 -48,22"
         inkscape:connector-curvature="0"
         id="path20"
         style="fill:#ffffff" /></g></g></svg>