<?xml version="1.0" encoding="UTF-8" standalone="no"?>
<!-- Created with Inkscape (http://www.inkscape.org/) -->

<svg
   xmlns:dc="http://purl.org/dc/elements/1.1/"
   xmlns:cc="http://creativecommons.org/ns#"
   xmlns:rdf="http://www.w3.org/1999/02/22-rdf-syntax-ns#"
   xmlns="http://www.w3.org/2000/svg"
   xmlns:sodipodi="http://sodipodi.sourceforge.net/DTD/sodipodi-0.dtd"
   xmlns:inkscape="http://www.inkscape.org/namespaces/inkscape"
   version="1.1"
   width="384.86264"
   height="340.20001"
   id="svg2"
   xml:space="preserve"
   inkscape:version="0.48.2 r9819"
   sodipodi:docname="UK traffic sign 506.1RR.svg"><sodipodi:namedview
     pagecolor="#ffffff"
     bordercolor="#666666"
     borderopacity="1"
     objecttolerance="10"
     gridtolerance="10"
     guidetolerance="10"
     inkscape:pageopacity="0"
     inkscape:pageshadow="2"
     inkscape:window-width="640"
     inkscape:window-height="480"
     id="namedview9"
     showgrid="false"
     inkscape:zoom="0.69157509"
     inkscape:cx="192.73755"
     inkscape:cy="170.06249"
     inkscape:window-x="0"
     inkscape:window-y="24"
     inkscape:window-maximized="0"
     inkscape:current-layer="svg2" /><defs
     id="defs10" /><metadata
     id="metadata8"><rdf:RDF><cc:Work
         rdf:about=""><dc:format>image/svg+xml</dc:format><dc:type
           rdf:resource="http://purl.org/dc/dcmitype/StillImage" /></cc:Work></rdf:RDF></metadata><g
     transform="matrix(1.25,0,0,-1.25,-2.887451,340.76251)"
     id="g10"><path
       d="m 22.35,0.45001 c -6.954,0.15129 -13.601,3.7994 -17.28,10.2 -3.722,6.419 -3.5579,13.999 -0.24,20.04 l 133.92,232.08 c 3.618,5.862 10.1,9.794 17.52,9.84 7.382,-0.046 13.865,-3.978 17.4,-9.84 l 134.04,-232.08 c 3.278,-6.041 3.442,-13.621 -0.24,-20.04 -3.72,-6.4006 -10.37,-10.049 -17.28,-10.2 H 22.35"
       inkscape:connector-curvature="0"
       id="path12"
       style="fill:#ec1d24" /><path
       d="M 156.27,238.17 277.95,27.33 H 34.47 l 121.8,210.84"
       inkscape:connector-curvature="0"
       id="path14"
       style="fill:#ffffff" /><path
       d="m 149.31,164.85 v -34.32 h 45.72 l 23.04,-22.68 -23.04,-22.56 h -22.32 v -49.8 h -46.08 v 129.36 h 22.68"
       inkscape:connector-curvature="0"
       id="path16" /></g></svg>