<?xml version="1.0" encoding="UTF-8" standalone="no"?>
<!-- Created with Inkscape (http://www.inkscape.org/) -->

<svg
   xmlns:dc="http://purl.org/dc/elements/1.1/"
   xmlns:cc="http://creativecommons.org/ns#"
   xmlns:rdf="http://www.w3.org/1999/02/22-rdf-syntax-ns#"
   xmlns="http://www.w3.org/2000/svg"
   xmlns:sodipodi="http://sodipodi.sourceforge.net/DTD/sodipodi-0.dtd"
   xmlns:inkscape="http://www.inkscape.org/namespaces/inkscape"
   version="1.1"
   width="360.26767"
   height="318.20004"
   id="svg2816"
   xml:space="preserve"
   inkscape:version="0.48.4 r9939"
   sodipodi:docname="AJAX.svg"><metadata
     id="metadata81"><rdf:RDF><cc:Work
         rdf:about=""><dc:format>image/svg+xml</dc:format><dc:type
           rdf:resource="http://purl.org/dc/dcmitype/StillImage" /><dc:title></dc:title></cc:Work></rdf:RDF></metadata><sodipodi:namedview
     pagecolor="#ffffff"
     bordercolor="#666666"
     borderopacity="1"
     objecttolerance="10"
     gridtolerance="10"
     guidetolerance="10"
     inkscape:pageopacity="0"
     inkscape:pageshadow="2"
     inkscape:window-width="1920"
     inkscape:window-height="1057"
     id="namedview79"
     showgrid="false"
     fit-margin-top="0.1"
     fit-margin-left="0.1"
     fit-margin-right="0.1"
     fit-margin-bottom="0.1"
     inkscape:zoom="1.4142136"
     inkscape:cx="270.0283"
     inkscape:cy="64.273187"
     inkscape:window-x="-8"
     inkscape:window-y="-8"
     inkscape:window-maximized="1"
     inkscape:current-layer="svg2816"
     showguides="true"
     inkscape:guide-bbox="true" /><defs
     id="defs2820"><clipPath
       id="clipPath2832"><path
         d="m -0.24,595.138 317.48,0 0,-595.276 -317.48,0 0,595.276 z"
         id="path2834"
         inkscape:connector-curvature="0" /></clipPath><clipPath
       id="clipPath2840"><path
         d="m 0.03,595.32 317.46,0 0,-595.32 -317.46,0 0,595.32 z"
         id="path2842"
         inkscape:connector-curvature="0" /></clipPath><clipPath
       id="clipPath2858"><path
         d="m -0.24,595.138 317.48,0 0,-595.276 -317.48,0 0,595.276 z"
         id="path2860"
         inkscape:connector-curvature="0" /></clipPath><clipPath
       id="clipPath2864"><path
         d="m 0.03,595.32 317.46,0 0,-595.32 -317.46,0 0,595.32 z"
         id="path2866"
         inkscape:connector-curvature="0" /></clipPath><clipPath
       id="clipPath3306"><path
         d="m 199.238,472.977 0,-29.74 29.744,0 0,29.74"
         id="path3308"
         inkscape:connector-curvature="0" /></clipPath><clipPath
       id="clipPath3322"><path
         d="m -0.24,595.138 317.48,0 0,-595.276 -317.48,0 0,595.276 z"
         id="path3324"
         inkscape:connector-curvature="0" /></clipPath><clipPath
       id="clipPath3330"><path
         d="m 0.03,595.32 317.46,0 0,-595.32 -317.46,0 0,595.32 z"
         id="path3332"
         inkscape:connector-curvature="0" /></clipPath><clipPath
       id="clipPath3344"><path
         d="m 88.233,387.221 0,-28.335 32.08,0 0,28.335"
         id="path3346"
         inkscape:connector-curvature="0" /></clipPath><clipPath
       id="clipPath3462"><path
         d="m -0.24,595.138 317.48,0 0,-595.276 -317.48,0 0,595.276 z"
         id="path3464"
         inkscape:connector-curvature="0" /></clipPath><clipPath
       id="clipPath3470"><path
         d="m 0.03,595.32 317.46,0 0,-595.32 -317.46,0 0,595.32 z"
         id="path3472"
         inkscape:connector-curvature="0" /></clipPath><clipPath
       id="clipPath3490"><path
         d="m -0.24,595.138 317.48,0 0,-595.276 -317.48,0 0,595.276 z"
         id="path3492"
         inkscape:connector-curvature="0" /></clipPath><clipPath
       id="clipPath3496"><path
         d="m 0.03,595.32 317.46,0 0,-595.32 -317.46,0 0,595.32 z"
         id="path3498"
         inkscape:connector-curvature="0" /></clipPath><clipPath
       id="clipPath3520"><path
         d="m 254.788,326.215 0,-28.309 28.326,0 0,28.309"
         id="path3522"
         inkscape:connector-curvature="0" /></clipPath><clipPath
       id="clipPath3544"><path
         d="m 145.049,326.142 0,-28.333 28.342,0 0,28.333"
         id="path3546"
         inkscape:connector-curvature="0" /></clipPath><clipPath
       id="clipPath3682"><path
         d="m -0.24,595.138 317.48,0 0,-595.276 -317.48,0 0,595.276 z"
         id="path3684"
         inkscape:connector-curvature="0" /></clipPath><clipPath
       id="clipPath3690"><path
         d="m 0.03,595.32 317.46,0 0,-595.32 -317.46,0 0,595.32 z"
         id="path3692"
         inkscape:connector-curvature="0" /></clipPath><clipPath
       id="clipPath3980"><path
         d="m -0.24,595.138 317.48,0 0,-595.276 -317.48,0 0,595.276 z"
         id="path3982"
         inkscape:connector-curvature="0" /></clipPath><clipPath
       id="clipPath3988"><path
         d="m 0.03,595.32 317.46,0 0,-595.32 -317.46,0 0,595.32 z"
         id="path3990"
         inkscape:connector-curvature="0" /></clipPath><clipPath
       id="clipPath4010"><path
         d="m -0.24,595.138 317.48,0 0,-595.276 -317.48,0 0,595.276 z"
         id="path4012"
         inkscape:connector-curvature="0" /></clipPath><clipPath
       id="clipPath4016"><path
         d="m 0.03,595.32 317.46,0 0,-595.32 -317.46,0 0,595.32 z"
         id="path4018"
         inkscape:connector-curvature="0" /></clipPath><clipPath
       id="clipPath4062"><path
         d="m 200.163,177.773 0,-28.284 28.283,0 0,28.284"
         id="path4064"
         inkscape:connector-curvature="0" /></clipPath><clipPath
       id="clipPath4090"><path
         d="m 34.886,177.515 0,-51.632 30.367,0 0,51.632"
         id="path4092"
         inkscape:connector-curvature="0" /></clipPath><clipPath
       id="clipPath4106"><path
         d="m 34.886,177.515 0,-51.632 30.367,0 0,51.632"
         id="path4108"
         inkscape:connector-curvature="0" /></clipPath><clipPath
       id="clipPath4272"><path
         d="m 34.886,177.515 0,-51.632 30.367,0 0,51.632"
         id="path4274"
         inkscape:connector-curvature="0" /></clipPath><clipPath
       id="clipPath4304"><path
         d="m 254.653,176.442 0,-48.167 28.317,0 0,48.167"
         id="path4306"
         inkscape:connector-curvature="0" /></clipPath><clipPath
       id="clipPath4310"><path
         d="m 253.565,177.983 31.181,0 0,-49.183 -31.181,0 0,49.183 z"
         id="path4312"
         inkscape:connector-curvature="0" /></clipPath><clipPath
       id="clipPath4316"><path
         d="m -0.24,595.138 317.48,0 0,-595.276 -317.48,0 0,595.276 z"
         id="path4318"
         inkscape:connector-curvature="0" /></clipPath><clipPath
       id="clipPath4322"><path
         d="m 0.03,595.32 317.46,0 0,-595.32 -317.46,0 0,595.32 z"
         id="path4324"
         inkscape:connector-curvature="0" /></clipPath><clipPath
       id="clipPath4456"><path
         d="m -0.24,595.138 317.48,0 0,-595.276 -317.48,0 0,595.276 z"
         id="path4458"
         inkscape:connector-curvature="0" /></clipPath><clipPath
       id="clipPath4464"><path
         d="m 0.03,595.32 317.46,0 0,-595.32 -317.46,0 0,595.32 z"
         id="path4466"
         inkscape:connector-curvature="0" /></clipPath></defs><path
     style="fill:#ec1d24;fill-opacity:1;fill-rule:evenodd;stroke:none"
     d="m 336.29008,318.10005 c 8.5855,0 16.45648,-4.5216 20.6875,-11.90625 4.25346,-7.37342 4.25346,-16.47912 0,-23.875 L 200.82133,11.975053 C 196.54541,4.6016333 188.72331,0.10005333 180.22759,0.10005333 c -0.0312,0 -0.0625,-1.2e-4 -0.0937,0 -0.0312,-1.2e-4 -0.0625,0 -0.0937,0 -8.49572,0 -16.31784,4.50157997 -20.59375,11.87499967 L 3.2901025,282.3188 c -4.25347,7.39588 -4.25347,16.50158 0,23.875 4.23102,7.38465 12.1019895,11.90625 20.6874995,11.90625 z"
     id="path3101"
     inkscape:connector-curvature="0"
     sodipodi:nodetypes="scccscscccss" /><path
     inkscape:connector-curvature="0"
     style="fill:#ffffff;fill-opacity:1;fill-rule:evenodd;stroke:none"
     id="path3121"
     d="m 37.754833,286.28316 284.757837,0 -142.379,-246.476647 z"
     sodipodi:nodetypes="cccc" /><path
     inkscape:connector-curvature="0"
     style="fill:#000000;fill-rule:nonzero;stroke:none"
     d="m 222.71623,276.68316 -0.87528,-4.37638 c 0,0 -2.04931,-6.98121 -4.66814,-11.3786 -1.71787,-2.72503 -3.20935,-3.79286 -3.20935,-3.79286 0,0 -1.43779,-1.36894 -1.75055,-1.75057 -0.19607,-0.51115 -1.21722,-1.59533 -1.45879,-1.75055 -0.52284,-0.2264 -10.79508,-11.08684 -10.79508,-11.08684 0,0 -0.8181,-0.86593 -1.16704,-1.16703 -0.41547,-0.20773 -1.6887,-1.67353 -1.75056,-2.04231 -0.31977,-0.26842 -1.14953,-0.84144 -1.4588,-1.16704 -0.32793,-0.31277 -1.15536,-1.45879 -1.45879,-2.04231 -0.20773,-0.43764 -3.64698,-4.89689 -5.54341,-6.4187 0.40145,-2.00263 4.44407,-9.43956 -6.12695,-19.25551 0,0 -3.55128,-9.47282 -3.79286,-13.12915 -0.16689,-0.82625 -0.48549,-2.35508 -0.58352,-2.62583 -0.28476,-0.36644 -0.92195,-2.53246 -0.87527,-3.20934 0.2089,-0.47149 -0.1097,-1.74588 -0.29176,-2.33407 -0.45398,-0.30343 -4.59812,-10.24542 -4.66815,-10.79508 -0.056,-0.34195 -0.11904,-0.97915 -0.29176,-1.16704 -0.33903,-0.44931 -1.03925,-2.2979 -1.16645,-3.20935 0,-1.12736 -0.38279,-3.35757 -0.87527,-4.08463 -0.5275,-0.5485 -1.29192,-3.16149 -0.87528,-5.25165 0.47614,-1.86026 1.04917,-6.95787 1.16704,-7.58574 -0.11787,-0.90328 -1.01067,-4.98091 -1.16704,-5.25165 -0.098,-0.36645 -2.71104,-8.90565 -2.91758,-9.62805 -0.0479,-0.80759 -1.32226,-3.99359 -1.75057,-4.66814 -0.59168,-0.60102 -1.86609,-2.83123 -2.04231,-3.50111 -0.33378,-0.60452 -1.28958,-2.26171 -2.04231,-3.20935 -0.52168,-0.70956 -3.19884,-3.95858 -4.08462,-6.12694 -1.19972,-2.89775 -2.63635,-7.55188 -2.62583,-10.5039 0.19839,-1.2206 -0.29176,-6.4187 -0.29176,-6.4187 l -98.323357,168.92842 167.761397,0 z"
     id="path15" /><path
     inkscape:connector-curvature="0"
     style="fill:#000000;fill-rule:nonzero;stroke:none"
     d="m 250.72568,219.20724 c -0.91146,0.14704 -3.89323,0.95697 -4.37639,0.87527 -0.70722,-0.0887 -1.72604,0.25091 -2.62583,0.58352 -1.14019,0.34661 -2.8394,1.2814 -3.20935,2.04231 -0.30927,0.59869 -3.53845,4.59345 -4.37638,5.25167 -0.69089,0.53098 -1.45647,1.2954 -1.75056,1.75055 -0.38629,0.56484 -0.72589,1.16002 -1.16703,1.75055 -1.69337,2.61065 -2.60716,3.77652 -3.50111,8.46101 -0.22058,0.88928 -0.13655,2.41927 -0.58351,3.20935 -0.23225,0.73873 0.0735,3.88972 0.87527,5.83518 0.25208,0.51232 2.03648,4.50591 6.12694,7.58573 3.89674,3.20819 10.69472,7.88098 11.67036,8.46101 3.08097,1.60467 4.18614,2.12166 8.461,1.16704 3.14167,-0.60687 3.65049,-0.98499 7.00222,-0.58352 1.2639,-0.0327 4.64012,0.89044 6.12694,-1.16704 0.545,-0.84609 2.58498,-3.22569 4.66815,-4.66813 1.99445,-1.61637 2.67483,-2.63518 3.5011,-3.79288 2.4076,-3.69484 3.42408,-4.32971 3.20935,-9.33629 -0.12721,-1.48796 -0.63603,-5.9904 -0.58352,-6.71045 -0.0525,-0.47031 -0.47848,-2.93393 -0.87528,-3.79286 -0.62203,-0.67105 -2.15202,-4.32505 -2.33407,-4.95991 -0.32794,-0.72473 -1.68754,-2.76355 -1.75055,-3.20934 -0.482,-0.64421 -3.35057,-4.02279 -5.25167,-4.66814 -0.97331,-0.23926 -2.16251,-0.83328 -2.33407,-1.16705 -0.16806,-0.517 -0.50766,-0.8566 -1.16703,-0.87527 -0.70022,-0.15054 -4.18383,-1.42496 -4.9599,-1.16704 -0.9243,0.0817 -1.68871,-0.0887 -2.33408,-0.29176 -0.71423,-0.13655 -6.57624,-1.07134 -8.461,-0.58351 z"
     id="path17" /><path
     inkscape:connector-curvature="0"
     style="fill:#000000;fill-rule:nonzero;stroke:none"
     d="m 215.42284,230.00231 c -0.62554,-0.3221 -2.06916,-0.83093 -2.91759,0.29176 -1.02117,1.08534 -3.06114,3.12532 -3.50112,4.08463 -0.23923,1.0795 -1.08884,3.79869 0,5.83517 2.19054,4.01927 3.9866,5.75816 7.29398,5.25166 0.96514,-0.15054 2.15318,-0.49015 2.62583,-0.29176 0.71773,-0.0291 2.16252,-0.45397 2.62583,-0.87528 0.7259,-0.59751 3.01913,-2.29672 3.50111,-3.20934 0.36878,-1.12736 0.62436,-2.57215 -0.58351,-3.50111 -1.00249,-1.10985 -2.6165,-3.57346 -2.9176,-4.08463 -0.37929,-0.50883 -0.6337,-1.52881 -1.45879,-1.75055 -0.87528,-0.28826 -4.66814,-1.75055 -4.66814,-1.75055 z"
     id="path19" /><path
     inkscape:connector-curvature="0"
     style="fill:#000000;fill-rule:nonzero;stroke:none"
     d="m 201.12666,199.95114 c -1.11337,-0.0957 -3.91775,0.24391 -4.66815,0.87528 -0.77842,0.38862 -1.20438,0.559 -1.45879,1.75055 -0.42481,1.35842 -1.27325,4.50126 -1.4588,5.25166 -0.15523,0.77841 -0.83443,2.3084 0,3.79287 0.69438,1.74471 4.00877,5.4839 4.66814,5.83517 0.52983,0.32794 1.88942,1.26274 3.20936,0.29176 1.56848,-1.069 3.35405,-2.08899 4.08462,-2.33407 0.68621,-0.56484 3.88388,-3.59563 2.91759,-6.71046 -0.42014,-1.96528 -1.01533,-5.27966 -2.33407,-6.41869 -1.05968,-1.07017 -2.92927,-2.42977 -4.9599,-2.33407 z"
     id="path21" /><path
     inkscape:connector-curvature="0"
     style="fill:#000000;fill-rule:nonzero;stroke:none"
     d="m 250.43392,192.07365 c -0.1599,-0.58936 -1.39345,-1.9898 -4.37639,-1.4588 -4.74868,0.83327 -9.67707,2.56631 -12.25388,5.54342 -0.90678,0.89395 -1.92677,2.67719 -1.75055,4.08463 -0.006,1.65252 -0.26026,1.99213 0,2.91759 0.0794,1.11451 0.0794,3.15332 0,3.79286 0.0794,0.54968 -0.006,2.67368 1.75055,3.79287 1.98281,0.92079 2.8184,1.27674 3.50112,1.75056 1.57316,1.40744 1.8404,1.62801 4.08462,2.04231 1.10985,0.10153 7.39667,0.52632 8.16925,0.58351 0.75741,-0.22757 2.3714,-0.48198 2.91759,-1.75055 0.81343,-1.28024 2.00263,-2.55465 2.33407,-2.91759 0.51933,-0.48665 2.64334,-3.63182 2.04231,-5.54342 -0.41897,-1.99563 -1.43895,-5.9052 -1.45879,-6.41869 -0.14938,-0.67572 -0.40497,-1.86493 -1.16704,-2.33408 -0.7679,-0.55084 -2.89191,-2.08082 -3.79286,-4.08462 z"
     id="path23" /><path
     inkscape:connector-curvature="0"
     style="fill:#000000;fill-rule:nonzero;stroke:none"
     d="m 200.8349,155.31203 c -0.50067,-0.56952 -0.9068,-0.82978 -1.4588,-0.29176 -0.63721,0.31159 -1.91161,0.90561 -2.04231,1.16704 -0.20891,0.41896 -0.63371,0.92778 -1.16704,1.16703 -0.31744,0.27192 -1.42145,0.86594 -1.75055,1.45879 -0.35011,0.42713 -1.03051,1.27674 -1.75055,1.75055 -0.47033,0.37578 -1.31877,1.14019 -1.75055,1.75056 -0.41898,0.58002 -1.0982,1.51364 -1.75056,2.04231 -0.53684,0.3221 -0.62204,0.91729 -1.16704,1.45879 -0.3046,0.47732 -0.98382,1.41095 -1.75055,2.33407 -0.93363,0.94763 -2.29206,3.49644 -1.4588,6.12694 0.86594,2.6375 2.39475,7.14109 2.62583,8.16925 0.10853,1.18104 0.78776,3.81504 1.16704,4.95991 0.6407,1.06433 1.06666,4.20833 3.50111,5.83517 4.01459,2.24304 12.89456,8.41666 17.79729,1.45879 2.33523,-3.68549 3.01912,-4.68097 5.54343,-6.12693 1.07482,-0.86827 5.834,-4.26669 6.41869,-4.95991 0.7749,-0.83559 1.28374,-1.26156 0.58352,-2.33407 -0.489,-1.30591 -2.35859,-4.8747 -2.91759,-7.00221 -0.43181,-3.02029 -2.075,-11.45562 -2.04231,-11.37859 -0.0327,-0.42947 -0.28827,-0.74691 -0.58352,-0.87528 -0.46916,-0.38279 -3.40076,-1.97579 -3.79286,-2.33408 -0.62788,-0.53333 -4.45109,-2.12633 -5.83519,-2.0423 -1.41912,-0.084 -1.93028,-0.27543 -2.62583,-0.29176 -0.57885,0.0163 -1.47047,0.0163 -2.04231,-0.58352 -0.44698,-0.42013 -1.27558,-1.09935 -1.75055,-1.45879 z"
     id="path25" /><path
     inkscape:connector-curvature="0"
     style="fill:#000000;fill-rule:nonzero;stroke:none"
     d="m 178.36946,159.10489 c -0.18907,0.16572 -0.25676,0.30459 -1.16703,0 -0.6197,-0.4598 -1.51133,-0.3326 -2.04232,-0.29176 -0.489,-0.0409 -0.42598,0.0875 -0.87528,0.58352 -0.1879,0.524 -1.27091,2.88024 -1.45879,3.20936 -0.1949,0.56366 -0.57769,1.58365 0,2.04231 0.44229,0.68738 2.03648,2.28154 2.33407,2.62583 0.0852,0.54733 0.40262,1.63151 1.16703,0.87527 0.89278,-0.64537 2.35858,-1.79374 2.62584,-2.04231 0.24273,-0.51584 0.68854,-1.66187 0.58352,-2.33407 0.10502,-0.72939 -0.0222,-3.47077 0,-3.79287 -0.14938,-0.1879 -0.27777,-0.88811 -1.16704,-0.87528 z"
     id="path27" /><path
     inkscape:connector-curvature="0"
     style="fill:#000000;fill-rule:nonzero;stroke:none"
     d="m 179.82825,136.93122 c -0.43648,-0.0537 -0.95114,-0.0806 -1.45879,-0.29176 -0.25676,-0.29877 -0.53918,-0.32911 -1.45879,-0.29176 -0.96515,0.18438 -2.87676,1.52181 -3.20936,2.04232 -0.49599,0.30809 -1.00598,0.75506 -1.16703,1.45879 -0.0945,0.95228 -0.79475,4.39388 -0.87528,5.25166 0.0806,1.05499 0.58935,2.96542 1.16704,3.5011 0.82625,0.73873 2.16368,2.20453 2.62582,2.62584 0.17506,0.59869 1.64085,1.61867 2.9176,0.58352 1.27207,-1.13088 2.86623,-2.97946 3.20935,-3.50112 0.5485,-0.37112 1.05849,-0.81692 1.45879,-1.45879 0.2369,-0.37813 0.5555,-0.82394 0.87528,-1.16704 0.57184,-0.54851 1.08183,-1.69688 1.16703,-2.04231 0.0431,-0.54502 0.0431,-1.43779 -0.29176,-2.04231 -0.049,-0.41548 -0.11204,-1.17988 -0.58351,-1.45879 -0.67572,-0.23109 -2.65152,-1.7599 -2.91759,-2.33407 -0.49833,-0.44582 -1.07135,-0.76559 -1.4588,-0.87528 z"
     id="path29" /><path
     inkscape:connector-curvature="0"
     style="fill:#000000;fill-rule:nonzero;stroke:none"
     d="m 171.65899,127.30317 c -0.25908,-0.41546 -0.36528,-0.90445 -0.87528,-0.87528 -0.50999,0.098 -0.9558,-0.0292 -1.45879,-0.29176 -0.26142,0.008 -1.07017,-0.035 -1.45879,0.29176 -0.47382,0.70956 -0.524,1.11802 -2.04231,1.16704 -1.16588,-0.049 -2.75188,-0.36762 -2.9176,0.58352 -0.2159,1.08884 -0.15171,2.61766 0.58352,3.79286 0.66637,0.99198 1.3666,2.07499 1.75056,2.62583 0.25324,0.46915 0.44464,0.85077 1.16703,1.16704 0.68038,0.57651 2.40059,1.65952 3.50111,1.16703 0.93829,-0.39913 2.02247,-1.1647 2.33407,-1.75055 0.32561,-0.30576 0.7084,-0.56135 0.87527,-0.87528 0.34195,-0.19489 1.36194,-2.61766 0.87528,-3.5011 -0.40496,-0.64537 -1.99796,-3.32139 -2.33407,-3.50111 z"
     id="path31" /></svg>