<?xml version="1.0" encoding="UTF-8" standalone="no"?>
<!-- Created with Inkscape (http://www.inkscape.org/) -->

<svg
   xmlns:dc="http://purl.org/dc/elements/1.1/"
   xmlns:cc="http://creativecommons.org/ns#"
   xmlns:rdf="http://www.w3.org/1999/02/22-rdf-syntax-ns#"
   xmlns="http://www.w3.org/2000/svg"
   xmlns:sodipodi="http://sodipodi.sourceforge.net/DTD/sodipodi-0.dtd"
   xmlns:inkscape="http://www.inkscape.org/namespaces/inkscape"
   version="1.1"
   width="385.69339"
   height="340.95001"
   id="svg2"
   xml:space="preserve"
   inkscape:version="0.48.2 r9819"
   sodipodi:docname="UK traffic sign 506.1RLL.svg"><sodipodi:namedview
     pagecolor="#ffffff"
     bordercolor="#666666"
     borderopacity="1"
     objecttolerance="10"
     gridtolerance="10"
     guidetolerance="10"
     inkscape:pageopacity="0"
     inkscape:pageshadow="2"
     inkscape:window-width="640"
     inkscape:window-height="480"
     id="namedview9"
     showgrid="false"
     inkscape:zoom="0.69157509"
     inkscape:cx="193.16242"
     inkscape:cy="170.51245"
     inkscape:window-x="0"
     inkscape:window-y="24"
     inkscape:window-maximized="0"
     inkscape:current-layer="svg2" /><defs
     id="defs10" /><metadata
     id="metadata8"><rdf:RDF><cc:Work
         rdf:about=""><dc:format>image/svg+xml</dc:format><dc:type
           rdf:resource="http://purl.org/dc/dcmitype/StillImage" /></cc:Work></rdf:RDF></metadata><g
     transform="matrix(1.25,0,0,-1.25,-2.4625762,341.06256)"
     id="g10"><path
       d="m 21.99,0.090042 c -6.897,0.21884 -13.558,3.8748 -17.28,10.32 -3.6954,6.402 -3.5309,13.998 -0.24,20.04 L 138.75,263.01004 c 3.588,5.906 10.084,9.846 17.52,9.84 7.399,0.006 13.895,-3.934 17.52,-9.84 L 307.95,30.450042 c 3.371,-6.042 3.535,-13.638 -0.12,-20.04 -3.76,-6.4452 -10.42,-10.101 -17.28,-10.32 H 21.99"
       inkscape:connector-curvature="0"
       id="path12"
       style="fill:#ec1d24" /><path
       d="M 156.27,238.41 278.31,27.09 H 34.23 l 122.04,211.32"
       inkscape:connector-curvature="0"
       id="path14"
       style="fill:#ffffff" /><path
       d="m 95.43,108.33 22.8,22.8 h 45.48 v 33.96 h 22.92 v -79.2 h 34.2 V 62.73 h -34.2 V 36.09 h -45.72 v 49.44 h -22.68 l -22.8,22.8"
       inkscape:connector-curvature="0"
       id="path16" /></g></svg>