<?xml version="1.0" encoding="UTF-8" standalone="no"?>
<!-- Created with Inkscape (http://www.inkscape.org/) -->

<svg
   xmlns:dc="http://purl.org/dc/elements/1.1/"
   xmlns:cc="http://creativecommons.org/ns#"
   xmlns:rdf="http://www.w3.org/1999/02/22-rdf-syntax-ns#"
   xmlns="http://www.w3.org/2000/svg"
   xmlns:sodipodi="http://sodipodi.sourceforge.net/DTD/sodipodi-0.dtd"
   xmlns:inkscape="http://www.inkscape.org/namespaces/inkscape"
   version="1.1"
   width="360.26764"
   height="318.20004"
   id="svg2816"
   xml:space="preserve"
   inkscape:version="0.48.4 r9939"
   sodipodi:docname="AJAX.svg"><metadata
     id="metadata81"><rdf:RDF><cc:Work
         rdf:about=""><dc:format>image/svg+xml</dc:format><dc:type
           rdf:resource="http://purl.org/dc/dcmitype/StillImage" /><dc:title></dc:title></cc:Work></rdf:RDF></metadata><sodipodi:namedview
     pagecolor="#ffffff"
     bordercolor="#666666"
     borderopacity="1"
     objecttolerance="10"
     gridtolerance="10"
     guidetolerance="10"
     inkscape:pageopacity="0"
     inkscape:pageshadow="2"
     inkscape:window-width="1920"
     inkscape:window-height="1057"
     id="namedview79"
     showgrid="false"
     fit-margin-top="0.1"
     fit-margin-left="0.1"
     fit-margin-right="0.1"
     fit-margin-bottom="0.1"
     inkscape:zoom="1.4142137"
     inkscape:cx="302.15975"
     inkscape:cy="147.81311"
     inkscape:window-x="-8"
     inkscape:window-y="-8"
     inkscape:window-maximized="1"
     inkscape:current-layer="svg2816"
     showguides="true"
     inkscape:guide-bbox="true" /><defs
     id="defs2820"><clipPath
       id="clipPath2832"><path
         d="m -0.24,595.138 317.48,0 0,-595.276 -317.48,0 0,595.276 z"
         id="path2834"
         inkscape:connector-curvature="0" /></clipPath><clipPath
       id="clipPath2840"><path
         d="m 0.03,595.32 317.46,0 0,-595.32 -317.46,0 0,595.32 z"
         id="path2842"
         inkscape:connector-curvature="0" /></clipPath><clipPath
       id="clipPath2858"><path
         d="m -0.24,595.138 317.48,0 0,-595.276 -317.48,0 0,595.276 z"
         id="path2860"
         inkscape:connector-curvature="0" /></clipPath><clipPath
       id="clipPath2864"><path
         d="m 0.03,595.32 317.46,0 0,-595.32 -317.46,0 0,595.32 z"
         id="path2866"
         inkscape:connector-curvature="0" /></clipPath><clipPath
       id="clipPath3306"><path
         d="m 199.238,472.977 0,-29.74 29.744,0 0,29.74"
         id="path3308"
         inkscape:connector-curvature="0" /></clipPath><clipPath
       id="clipPath3322"><path
         d="m -0.24,595.138 317.48,0 0,-595.276 -317.48,0 0,595.276 z"
         id="path3324"
         inkscape:connector-curvature="0" /></clipPath><clipPath
       id="clipPath3330"><path
         d="m 0.03,595.32 317.46,0 0,-595.32 -317.46,0 0,595.32 z"
         id="path3332"
         inkscape:connector-curvature="0" /></clipPath><clipPath
       id="clipPath3344"><path
         d="m 88.233,387.221 0,-28.335 32.08,0 0,28.335"
         id="path3346"
         inkscape:connector-curvature="0" /></clipPath><clipPath
       id="clipPath3462"><path
         d="m -0.24,595.138 317.48,0 0,-595.276 -317.48,0 0,595.276 z"
         id="path3464"
         inkscape:connector-curvature="0" /></clipPath><clipPath
       id="clipPath3470"><path
         d="m 0.03,595.32 317.46,0 0,-595.32 -317.46,0 0,595.32 z"
         id="path3472"
         inkscape:connector-curvature="0" /></clipPath><clipPath
       id="clipPath3490"><path
         d="m -0.24,595.138 317.48,0 0,-595.276 -317.48,0 0,595.276 z"
         id="path3492"
         inkscape:connector-curvature="0" /></clipPath><clipPath
       id="clipPath3496"><path
         d="m 0.03,595.32 317.46,0 0,-595.32 -317.46,0 0,595.32 z"
         id="path3498"
         inkscape:connector-curvature="0" /></clipPath><clipPath
       id="clipPath3520"><path
         d="m 254.788,326.215 0,-28.309 28.326,0 0,28.309"
         id="path3522"
         inkscape:connector-curvature="0" /></clipPath><clipPath
       id="clipPath3544"><path
         d="m 145.049,326.142 0,-28.333 28.342,0 0,28.333"
         id="path3546"
         inkscape:connector-curvature="0" /></clipPath><clipPath
       id="clipPath3682"><path
         d="m -0.24,595.138 317.48,0 0,-595.276 -317.48,0 0,595.276 z"
         id="path3684"
         inkscape:connector-curvature="0" /></clipPath><clipPath
       id="clipPath3690"><path
         d="m 0.03,595.32 317.46,0 0,-595.32 -317.46,0 0,595.32 z"
         id="path3692"
         inkscape:connector-curvature="0" /></clipPath><clipPath
       id="clipPath3980"><path
         d="m -0.24,595.138 317.48,0 0,-595.276 -317.48,0 0,595.276 z"
         id="path3982"
         inkscape:connector-curvature="0" /></clipPath><clipPath
       id="clipPath3988"><path
         d="m 0.03,595.32 317.46,0 0,-595.32 -317.46,0 0,595.32 z"
         id="path3990"
         inkscape:connector-curvature="0" /></clipPath><clipPath
       id="clipPath4010"><path
         d="m -0.24,595.138 317.48,0 0,-595.276 -317.48,0 0,595.276 z"
         id="path4012"
         inkscape:connector-curvature="0" /></clipPath><clipPath
       id="clipPath4016"><path
         d="m 0.03,595.32 317.46,0 0,-595.32 -317.46,0 0,595.32 z"
         id="path4018"
         inkscape:connector-curvature="0" /></clipPath><clipPath
       id="clipPath4062"><path
         d="m 200.163,177.773 0,-28.284 28.283,0 0,28.284"
         id="path4064"
         inkscape:connector-curvature="0" /></clipPath><clipPath
       id="clipPath4090"><path
         d="m 34.886,177.515 0,-51.632 30.367,0 0,51.632"
         id="path4092"
         inkscape:connector-curvature="0" /></clipPath><clipPath
       id="clipPath4106"><path
         d="m 34.886,177.515 0,-51.632 30.367,0 0,51.632"
         id="path4108"
         inkscape:connector-curvature="0" /></clipPath><clipPath
       id="clipPath4272"><path
         d="m 34.886,177.515 0,-51.632 30.367,0 0,51.632"
         id="path4274"
         inkscape:connector-curvature="0" /></clipPath><clipPath
       id="clipPath4304"><path
         d="m 254.653,176.442 0,-48.167 28.317,0 0,48.167"
         id="path4306"
         inkscape:connector-curvature="0" /></clipPath><clipPath
       id="clipPath4310"><path
         d="m 253.565,177.983 31.181,0 0,-49.183 -31.181,0 0,49.183 z"
         id="path4312"
         inkscape:connector-curvature="0" /></clipPath><clipPath
       id="clipPath4316"><path
         d="m -0.24,595.138 317.48,0 0,-595.276 -317.48,0 0,595.276 z"
         id="path4318"
         inkscape:connector-curvature="0" /></clipPath><clipPath
       id="clipPath4322"><path
         d="m 0.03,595.32 317.46,0 0,-595.32 -317.46,0 0,595.32 z"
         id="path4324"
         inkscape:connector-curvature="0" /></clipPath><clipPath
       id="clipPath4456"><path
         d="m -0.24,595.138 317.48,0 0,-595.276 -317.48,0 0,595.276 z"
         id="path4458"
         inkscape:connector-curvature="0" /></clipPath><clipPath
       id="clipPath4464"><path
         d="m 0.03,595.32 317.46,0 0,-595.32 -317.46,0 0,595.32 z"
         id="path4466"
         inkscape:connector-curvature="0" /></clipPath></defs><path
     style="fill:#ec1d24;fill-opacity:1;fill-rule:evenodd;stroke:none"
     d="m 23.977595,318.10005 c -8.5855,0 -16.45648,-4.52158 -20.6875,-11.90625 -4.25346,-7.37342 -4.25346,-16.47911 0,-23.875 L 159.4463,11.975043 c 4.27595,-7.3733997 12.09806,-11.87498967 20.59376,-11.87498967 0.0312,0 0.0625,-1.2e-4 0.0937,0 0.0312,-1.2e-4 0.0625,0 0.0937,0 8.49572,0 16.31784,4.50157997 20.59375,11.87498967 L 356.97755,282.3188 c 4.25347,7.39589 4.25347,16.50158 0,23.875 -4.23102,7.38467 -12.10199,11.90625 -20.6875,11.90625 z"
     id="path3101"
     inkscape:connector-curvature="0"
     sodipodi:nodetypes="scccscscccss" /><path
     inkscape:connector-curvature="0"
     style="fill:#ffffff;fill-opacity:1;fill-rule:evenodd;stroke:none"
     id="path3121"
     d="m 37.755005,286.28317 284.757815,0 L 180.13389,39.806513 z"
     sodipodi:nodetypes="cccc" /><path
     sodipodi:nodetypes="sssss"
     style="fill:#000000;fill-opacity:1;stroke:none"
     d="m 119.78401,276.38316 c 9.60975,0 17.4,-7.79023 17.4,-17.39999 0,-9.60975 -7.79025,-17.4 -17.4,-17.4 -9.60976,0 -17.4,7.79025 -17.4,17.4 0,9.60976 7.79023,17.39999 17.4,17.39999 z"
     id="path3905"
     inkscape:connector-curvature="0" /><path
     inkscape:connector-curvature="0"
     id="path3918"
     d="m 157.584,276.38316 c 9.60977,0 17.4,-7.79023 17.4,-17.39999 0,-9.60975 -7.79024,-17.4 -17.4,-17.4 -9.60976,0 -17.4,7.79025 -17.4,17.4 0,9.60976 7.79024,17.39999 17.4,17.39999 z"
     style="fill:#000000;fill-opacity:1;stroke:none"
     sodipodi:nodetypes="sssss" /><path
     sodipodi:nodetypes="sssss"
     style="fill:#000000;fill-opacity:1;stroke:none"
     d="m 195.384,276.38316 c 9.60976,0 17.4,-7.79023 17.4,-17.39999 0,-9.60975 -7.79024,-17.4 -17.4,-17.4 -9.60976,0 -17.4,7.79025 -17.4,17.4 0,9.60976 7.79024,17.39999 17.4,17.39999 z"
     id="path3920"
     inkscape:connector-curvature="0" /><path
     sodipodi:nodetypes="sssss"
     style="fill:#000000;fill-opacity:1;stroke:none"
     d="m 225.58401,276.38316 c 6.29605,0 11.4,-5.10394 11.4,-11.39999 0,-6.29605 -5.10395,-11.4 -11.4,-11.4 -6.29606,0 -11.4,5.10395 -11.4,11.4 0,6.29605 5.10394,11.39999 11.4,11.39999 z"
     id="path3924"
     inkscape:connector-curvature="0" /><path
     inkscape:connector-curvature="0"
     id="path3937"
     d="m 250.48401,276.38316 c 6.29604,0 11.39999,-5.10394 11.39999,-11.39999 0,-6.29605 -5.10395,-11.4 -11.39999,-11.4 -6.29605,0 -11.4,5.10395 -11.4,11.4 0,6.29605 5.10395,11.39999 11.4,11.39999 z"
     style="fill:#000000;fill-opacity:1;stroke:none"
     sodipodi:nodetypes="sssss" /><path
     inkscape:connector-curvature="0"
     style="fill:#000000;fill-rule:nonzero;stroke:none"
     d="m 213.94942,144.89221 c -3.69358,-6.97376 -11.49997,-11.6967 -19.90829,-11.71076 -1.0645,0.014 -2.07633,0.0855 -2.92768,0.29277 -4.46767,-6.04275 -11.49647,-9.92604 -19.32276,-9.95415 -13.25893,0.0281 -23.91805,10.68724 -24.00705,23.71429 0.089,13.27179 10.74812,23.93091 24.00705,24.00705 1.94515,-0.0762 3.93833,-0.33728 5.85538,-0.87831 4.04605,4.4817 9.87802,7.25833 16.39506,7.31923 3.35865,-0.0609 6.57325,-0.82327 9.36859,-2.04939 2.9757,4.05427 7.8099,6.79925 13.17461,6.73369 3.27199,0.0655 6.21723,-0.8467 8.78307,-2.34215 0,0 1.57743,-1.25423 3.22046,-1.17108 1.52941,-0.0832 4.3353,2.72275 4.39152,3.806 -0.0562,1.11368 0,9.07584 0,9.07584 l 10.83246,0 c 0,0 4.60466,-35.04562 -29.86242,-46.84303 z"
     id="path3963" /><path
     sodipodi:nodetypes="ccccccccccccccccccccccc"
     id="path3965"
     d="m 263.134,239.78704 -6.73369,0 0,-35.7178 -9.66138,0 c 0,0 -0.72723,-5.17266 2.9277,-5.26985 0.006,-0.96029 0,-5.56404 0,-5.56404 l -22.25044,0 c 0,0 -0.11008,4.60375 0,5.56404 3.54953,0.0972 2.63492,5.26985 2.63492,5.26985 l -43.32922,0 c 0,0 0.98137,-6.6365 -5.26983,-11.12523 l -10.53969,0 c -6.22544,4.48873 -5.26983,11.12523 -5.26983,11.12523 l -28.98414,0 0,-10.83246 -32.5044,0 0,13.76014 12.3,0 0,20.7866 -19.319995,0 0,24.29982 165.999995,0 z"
     style="fill:#000000;fill-rule:nonzero;stroke:none"
     inkscape:connector-curvature="0" /></svg>