<?xml version="1.0" encoding="UTF-8" standalone="no"?>
<!-- Created with Inkscape (http://www.inkscape.org/) -->

<svg
   xmlns:dc="http://purl.org/dc/elements/1.1/"
   xmlns:cc="http://creativecommons.org/ns#"
   xmlns:rdf="http://www.w3.org/1999/02/22-rdf-syntax-ns#"
   xmlns="http://www.w3.org/2000/svg"
   version="1.1"
   width="680"
   height="600"
   id="svg2"
   xml:space="preserve"><metadata
     id="metadata4"><rdf:RDF><cc:Work
         rdf:about=""><dc:format>image/svg+xml</dc:format><dc:type
           rdf:resource="http://purl.org/dc/dcmitype/StillImage" /><dc:title></dc:title></cc:Work></rdf:RDF></metadata><defs
     id="defs6"><clipPath
       id="clipPath16"><path
         d="m 0,170.12 192.47,0 0,-170.06 H 0 v 170.06 z"
         id="path9" /></clipPath></defs><path
     d="M 674.40733,532.62652 379.21059,22.880014 C 371.05298,8.6439456 356.30286,0.0035165 340.00177,0.0035165 c -15.76761,0 -31.04415,8.6404291 -38.67535,22.8764975 L 6.1014273,532.62652 c -4.084812,7.10921 -6.1205053,14.73354 -6.1205053,22.86238 0,24.90519 20.362939,44.72278 45.306719,44.72278 H 635.18649 c 24.93565,0 44.78384,-19.81759 44.78384,-44.72278 0,-8.64043 -1.53331,-15.24159 -5.60328,-22.86238"
     id="path15"
     style="fill:#ec1d24;fill-opacity:1;fill-rule:evenodd" /><path
     d="m 71.2675,540.24749 537.975,0 -269.25,-465.025 -268.725,465.025"
     id="path17"
     style="fill:#fafafb;fill-rule:evenodd" /><path
     d="m 374.1,379.13749 c 0,-6.10725 -4.56812,-11.17713 -10.17138,-11.68875 l -2.042,-11.18775 46.84,-2.02863 v 23.37375 c 3.049,3.06238 7.11888,5.08763 11.18888,5.08763 4.58225,0 8.65575,-2.02513 11.70475,-5.08763 v -25.41375 c 3.56125,-2.02512 5.61737,-5.59562 5.61737,-9.646 v -32.5325 c 0,-5.58862 -4.6105,-10.66562 -10.19962,-11.17712 l -6.09788,-37.61 c -1.53325,-9.145 -9.67675,-16.25375 -18.8375,-16.25375 h -78.3825 c -9.65912,0 -17.81625,7.10925 -19.3425,16.25375 l -5.59625,37.61 c -6.105,0.51157 -10.68725,5.58862 -10.68725,11.17712 v 4.05738 h -27.4825 c -9.68387,0 -17.315,6.61525 -18.8375,15.7675 l -6.1085,37.61 c -6.09787,0.51159 -10.68012,5.5815 -10.68012,11.68875 v 3.55637 h -27.48625 c -9.68038,0 -17.82375,7.10925 -19.34625,16.2475 l -5.59625,37.11625 c -6.1085,0.50805 -10.68362,5.5815 -10.68362,11.69938 v 32 c 0,4.068 2.0385,7.62437 5.59625,10.17162 v 25.41375 c 3.0525,3.04838 7.1225,5.0735 11.69762,5.0735 4.07,0 8.65225,-2.02512 11.2065,-5.0735 v -23.37375 l 46.31375,1.51713 45.8125,-1.51713 v 23.37375 c 3.056,3.04838 7.1295,5.0735 11.1925,5.0735 4.58225,0 8.65225,-2.02512 11.70112,-5.0735 v -25.41375 c 3.56126,-2.03925 5.59626,-6.10375 5.59626,-10.17162 v -32 c 0,-6.11775 -4.57163,-11.19125 -10.68013,-11.69938 l -1.52625,-11.17712 46.8325,-2.03925 v 23.37375 c 3.0525,3.567 7.1225,5.09812 11.19238,5.09812 4.58224,0 8.64162,-1.53125 11.70475,-5.09812 v -25.4025 c 3.56125,-2.02513 5.58912,-5.5815 5.58912,-9.66 v -32.015 z m -11.19238,-88.4325 c 45.81875,1.01965 46.84,1.52412 46.84,1.52412 4.05588,0 7.617,-3.55637 7.617,-7.61375 0,0 0,-1.53125 -2.01375,-12.19675 -1.02456,-7.63487 -7.13662,-13.22375 -14.7825,-14.23625 l -23.91875,-1.53125 h -27.985 l -23.925,1.53125 c -7.63124,1.01259 -13.75374,6.60113 -14.7675,14.23625 -1.52975,10.66563 -1.52975,12.19675 -1.52975,12.19675 0,4.05738 3.056,7.61375 7.64538,7.61375 0,0 0.50874,-0.50451 46.81875,-1.52412 m -116.05125,50.8225 c 1.02102,-7.62075 7.14362,-13.71375 14.7675,-14.73375 l 23.92875,-1.53125 h 27.995 l 23.91125,1.53125 c 7.64538,1.01962 13.74375,7.11275 14.76375,14.73375 2.042,10.66562 2.042,11.68525 2.042,11.68525 0,4.068 -3.55775,7.63488 -7.64538,7.63488 l -46.82625,-1.51363 c -46.30625,1.51363 -46.815,1.51363 -46.815,1.51363 -4.59637,0 -8.15762,-3.56701 -8.15762,-7.63488 0,0 0.50875,-1.01964 2.035,-12.19675 v 0.51157 z m -63.10875,68.61875 c 1.01396,-7.62075 7.133,-13.23 14.7675,-14.23625 l 23.92125,-1.53125 h 27.98125 l 23.92875,1.53125 c 7.63475,1.00552 13.74625,6.61525 14.7675,14.23625 2.035,10.66562 2.035,11.67463 2.035,11.67463 0,4.5725 -3.56125,7.63487 -7.63125,7.63487 l -46.8325,-1.53125 c -46.31375,1.53125 -47.34125,1.53125 -47.34125,1.53125 -4.07,0 -7.63125,-3.0625 -7.63125,-7.63487 0,0 0,-1.00905 2.035,-11.67463"
     id="path19"
     style="fill:#231f20;fill-rule:evenodd" /></svg>