<?xml version="1.0" encoding="UTF-8" standalone="no"?>
<!-- Created with Inkscape (http://www.inkscape.org/) -->

<svg
   xmlns:dc="http://purl.org/dc/elements/1.1/"
   xmlns:cc="http://creativecommons.org/ns#"
   xmlns:rdf="http://www.w3.org/1999/02/22-rdf-syntax-ns#"
   xmlns="http://www.w3.org/2000/svg"
   xmlns:inkscape="http://www.inkscape.org/namespaces/inkscape"
   version="1.1"
   width="385.54999"
   height="340.79999"
   id="svg2"
   xml:space="preserve"><defs
     id="defs18" /><metadata
     id="metadata8"><rdf:RDF><cc:Work
         rdf:about=""><dc:format>image/svg+xml</dc:format><dc:type
           rdf:resource="http://purl.org/dc/dcmitype/StillImage" /></cc:Work></rdf:RDF></metadata><g
     transform="matrix(1.25,0,0,-1.25,-3.4738,341.06)"
     id="g10"><path
       d="m 291.21,0.21001 c 6.885,0.15912 13.543,3.8133 17.28,10.2 3.677,6.454 3.512,14.047 0.24,20.16 l -134.28,232.44 c -3.544,5.847 -10.037,9.786 -17.4,9.84 -7.465,-0.054 -13.959,-3.993 -17.52,-9.84 L 5.25,30.57001 c -3.2524,-6.113 -3.4166,-13.706 0.24,-20.16 3.7571,-6.3867 10.415,-10.041 17.28,-10.2 h 268.44"
       inkscape:connector-curvature="0"
       id="path12"
       style="fill:#ec1d24" /><path
       d="M 157.05,238.41 35.01,27.09 H 278.97 L 157.05,238.41"
       inkscape:connector-curvature="0"
       id="path14"
       style="fill:#ffffff" /><path
       d="m 111.33,79.89 c 5.857,0.025 10.653,-4.77 10.68,-10.68 -0.027,-5.92 -4.823,-10.715 -10.68,-10.68 -5.973,-0.035 -10.768,4.76 -10.8,10.68 0.032,5.91 4.827,10.705 10.8,10.68"
       inkscape:connector-curvature="0"
       id="path16" /><path
       d="m 136.65,94.77 c 5.965,0.029 10.76,-4.766 10.8,-10.68 -0.04,-5.916 -4.835,-10.711 -10.8,-10.68 -5.865,-0.031 -10.66,4.764 -10.68,10.68 0.02,5.914 4.815,10.709 10.68,10.68"
       inkscape:connector-curvature="0"
       id="path18" /><path
       d="m 222.93,80.01 c 5.882,0.02 10.677,-4.775 10.68,-10.68 -0.003,-5.925 -4.798,-10.72 -10.68,-10.68 -5.948,-0.04 -10.743,4.755 -10.8,10.68 0.057,5.905 4.852,10.7 10.8,10.68"
       inkscape:connector-curvature="0"
       id="path20" /><path
       d="m 99.57,64.29 c -0.695,1.477 -1.052,3.154 -1.08,4.92 0.028,7.039 5.738,12.75 12.84,12.72 4.102,0.03 7.796,-1.961 10.08,-5.04 l 3.6,2.04 c -0.683,1.605 -1.065,3.337 -1.08,5.16 0.015,7.043 5.726,12.754 12.72,12.72 4.249,0.034 7.975,-1.996 10.32,-5.16 l 2.4,1.56 c -0.923,1.34 -2.089,2.517 -3.36,3.48 l 3.36,-0.48 8.64,-18.72 51.6,-7.32 c 0.458,6.965 6.231,12.456 13.32,12.48 7.316,-0.024 13.274,-5.981 13.32,-13.32 -0.046,-0.972 -0.149,-1.91 -0.36,-2.76 l 6.12,-0.96 c 0.241,1.229 0.36,2.455 0.36,3.72 0,10.744 -8.719,19.463 -19.44,19.44 -5.597,0.023 -10.616,-2.311 -14.16,-6 l -3.6,0.48 4.32,30.72 c 0,0 0.555,3.543 -2.76,4.08 l -37.2,5.16 c 0,0 -3.96,1.05 -4.56,-2.76 l -3.48,-25.32 -4.56,11.04 -27.36,3.72 -1.32,-10.08 -6.48,-3.84 -11.28,19.56 c 0,0 -2.385,3.268 -5.52,1.44 l -12.84,-7.56 c 0,0 -2.063,-1.444 -2.4,-4.56 L 87.81,80.49 c 0,0 -0.313,-2.908 0.72,-4.56 l 7.8,-13.56 3.24,1.92"
       inkscape:connector-curvature="0"
       id="path22" /><path
       d="M 246.09,52.05 226.53,51.93 C 206.557,51.97 191.135,75.241 171.21,75.21 151.709,75.241 131.789,51.97 115.77,51.93 H 70.89 V 35.85 h 175.2 v 16.2"
       inkscape:connector-curvature="0"
       id="path24" /><path
       d="m 111.33,72.81 c 1.914,-0.035 3.512,-1.633 3.48,-3.6 0.032,-1.977 -1.566,-3.575 -3.48,-3.6 -2.029,0.025 -3.628,1.623 -3.6,3.6 -0.028,1.967 1.571,3.565 3.6,3.6"
       inkscape:connector-curvature="0"
       id="path26"
       style="fill:#ffffff" /><path
       d="m 136.65,87.69 c 2.022,-0.031 3.62,-1.629 3.6,-3.6 0.02,-1.973 -1.578,-3.571 -3.6,-3.6 -1.922,0.029 -3.52,1.627 -3.48,3.6 -0.04,1.971 1.558,3.569 3.48,3.6"
       inkscape:connector-curvature="0"
       id="path28"
       style="fill:#ffffff" /><path
       d="m 222.93,72.93 c 1.939,-0.04 3.537,-1.638 3.48,-3.6 0.057,-1.982 -1.541,-3.58 -3.48,-3.6 -2.005,0.02 -3.603,1.618 -3.6,3.6 -0.003,1.962 1.595,3.56 3.6,3.6"
       inkscape:connector-curvature="0"
       id="path30"
       style="fill:#ffffff" /><path
       d="m 95.49,102.09 -1.08,-17.28 18.96,11.16 -7.08,12.48 -10.8,-6.36"
       inkscape:connector-curvature="0"
       id="path32"
       style="fill:#ffffff" /></g></svg>