<?xml version="1.0" encoding="UTF-8" standalone="no"?>
<!-- Created with Inkscape (http://www.inkscape.org/) -->

<svg
   xmlns:dc="http://purl.org/dc/elements/1.1/"
   xmlns:cc="http://creativecommons.org/ns#"
   xmlns:rdf="http://www.w3.org/1999/02/22-rdf-syntax-ns#"
   xmlns="http://www.w3.org/2000/svg"
   xmlns:sodipodi="http://sodipodi.sourceforge.net/DTD/sodipodi-0.dtd"
   xmlns:inkscape="http://www.inkscape.org/namespaces/inkscape"
   version="1.1"
   width="387.67068"
   height="342.75"
   id="svg2"
   xml:space="preserve"
   inkscape:version="0.48.2 r9819"
   sodipodi:docname="UK traffic sign 554.2.svg"><sodipodi:namedview
     pagecolor="#ffffff"
     bordercolor="#666666"
     borderopacity="1"
     objecttolerance="10"
     gridtolerance="10"
     guidetolerance="10"
     inkscape:pageopacity="0"
     inkscape:pageshadow="2"
     inkscape:window-width="640"
     inkscape:window-height="480"
     id="namedview9"
     showgrid="false"
     inkscape:zoom="0.68654545"
     inkscape:cx="193.83231"
     inkscape:cy="171.3875"
     inkscape:window-x="0"
     inkscape:window-y="24"
     inkscape:window-maximized="0"
     inkscape:current-layer="svg2" /><defs
     id="defs10" /><metadata
     id="metadata8"><rdf:RDF><cc:Work
         rdf:about=""><dc:format>image/svg+xml</dc:format><dc:type
           rdf:resource="http://purl.org/dc/dcmitype/StillImage" /></cc:Work></rdf:RDF></metadata><g
     transform="matrix(1.25,0,0,-1.25,-3.6676893,343.2375)"
     id="g10"><path
       d="m 292.89,0.39 c 6.999,0.2126 13.695,3.8874 17.4,10.32 3.75,6.481 3.585,14.117 0.24,20.16 L 175.65,264.63 c -3.666,5.973 -10.196,9.933 -17.64,9.96 -7.467,-0.027 -13.997,-3.987 -17.64,-9.96 L 5.49,30.87 C 2.1249,24.827 1.9597,17.191 5.73,10.71 9.4151,4.2774 16.111,0.603 23.01,0.39 h 269.88"
       inkscape:connector-curvature="0"
       id="path12"
       style="fill:#ec1d24" /><path
       d="M 158.01,239.91 35.37,27.51 h 245.28 l -122.64,212.4"
       inkscape:connector-curvature="0"
       id="path14"
       style="fill:#ffffff" /><path
       d="m 209.61,83.43 v 7.92 l -6.84,3.84 -12.72,-7.32 -18.6,10.68 18.6,10.68 12.72,-7.44 6.84,3.96 v 7.92 l -6,3.36 6,3.48 v 7.92 l -6.84,3.96 -6,-3.48 v 6.84 l -6.84,3.96 -6.84,-3.84 v -14.76 l -18.48,-10.68 v 21.36 l 12.84,7.32 v 7.8 l -6.84,3.96 -6,-3.36 v 6.96 l -6.84,3.96 -6.84,-3.96 v -6.96 l -6,3.36 -6.84,-3.96 v -7.8 l 12.84,-7.32 v -21.36 l -18.48,10.68 v 14.76 l -6.72,3.84 -6.96,-3.96 v -6.84 l -6,3.48 -6.84,-3.96 v -7.92 l 6,-3.48 -5.88,-3.36 v -7.92 l 6.72,-3.96 12.84,7.44 18.48,-10.68 -18.48,-10.68 -12.84,7.32 -6.72,-3.84 v -7.92 l 5.88,-3.48 -6,-3.48 v -7.92 l 6.84,-3.96 6,3.48 v -6.84 l 6.96,-3.96 6.72,3.96 v 14.76 l 18.48,10.68 V 65.31 l -12.84,-7.44 v -7.8 l 6.84,-3.96 6,3.36 v -6.84 l 6.84,-3.96 6.84,3.96 v 6.84 l 6,-3.36 6.84,3.96 v 7.8 l -12.84,7.44 V 86.67 L 183.09,75.99 V 61.23 l 6.84,-3.96 6.84,3.96 v 6.84 l 6,-3.48 6.84,3.96 v 7.92 l -6,3.48 6,3.48"
       inkscape:connector-curvature="0"
       id="path16" /></g></svg>