<?xml version="1.0" encoding="UTF-8" standalone="no"?>
<!-- Created with Inkscape (http://www.inkscape.org/) -->

<svg
   xmlns:dc="http://purl.org/dc/elements/1.1/"
   xmlns:cc="http://creativecommons.org/ns#"
   xmlns:rdf="http://www.w3.org/1999/02/22-rdf-syntax-ns#"
   xmlns="http://www.w3.org/2000/svg"
   xmlns:sodipodi="http://sodipodi.sourceforge.net/DTD/sodipodi-0.dtd"
   xmlns:inkscape="http://www.inkscape.org/namespaces/inkscape"
   id="svg2"
   version="1.1"
   inkscape:version="0.48.2 r9819"
   width="385.51804"
   height="340.75"
   xml:space="preserve"
   sodipodi:docname="772.EPS"><metadata
     id="metadata8"><rdf:RDF><cc:Work
         rdf:about=""><dc:format>image/svg+xml</dc:format><dc:type
           rdf:resource="http://purl.org/dc/dcmitype/StillImage" /><dc:title></dc:title></cc:Work></rdf:RDF></metadata><defs
     id="defs6" /><sodipodi:namedview
     pagecolor="#ffffff"
     bordercolor="#666666"
     borderopacity="1"
     objecttolerance="10"
     gridtolerance="10"
     guidetolerance="10"
     inkscape:pageopacity="0"
     inkscape:pageshadow="2"
     inkscape:window-width="640"
     inkscape:window-height="480"
     id="namedview4"
     showgrid="false"
     fit-margin-top="0"
     fit-margin-left="0"
     fit-margin-right="0"
     fit-margin-bottom="0"
     inkscape:zoom="0.69157509"
     inkscape:cx="192.75881"
     inkscape:cy="170.34375"
     inkscape:window-x="439"
     inkscape:window-y="157"
     inkscape:window-maximized="0"
     inkscape:current-layer="g10" /><g
     id="g10"
     inkscape:groupmode="layer"
     inkscape:label="ink_ext_XXXXXX"
     transform="matrix(1.25,0,0,-1.25,-3.4911894,341.03125)"><g
       id="g12"
       transform="scale(0.1,0.1)"><path
         d="m 2912.25,2.25 c 68.7,1.44141 135.28,37.9844 172,102 37.42,64.395 35.77,140.324 3,201 l -1342,2324 c -36.19,59.32 -101.13,98.71 -175,99 -74.4,-0.29 -139.34,-39.68 -175,-99 l -1342,-2324 c -33.2734,-60.676 -34.9141,-136.605 2,-201 37.2227,-64.0156 103.801,-100.55859 173,-102 l 2684,0"
         style="fill:#ec1d24;fill-opacity:1;fill-rule:nonzero;stroke:none"
         id="path14"
         inkscape:connector-curvature="0" /><path
         d="m 1570.25,2384.25 -1220,-2113 2439,0 -1219,2113"
         style="fill:#ffffff;fill-opacity:1;fill-rule:nonzero;stroke:none"
         id="path16"
         inkscape:connector-curvature="0" /><path
         d="m 1865.25,415.25 c 0,0 3.05,-54.215 56,-54 53.35,-0.215 57,54 57,54 l 76,0 c 0,0 3.19,-54.215 56,-54 53.49,-0.215 57,54 57,54 l 81,0 0,26 137,0 0,246 -46,184 c -9.35,36.137 -44,36 -44,36 l -537,0 -16,16 c -13.05,12.805 -25,11 -25,11 l -110,0 134,96 -138,96 0,29 c -0.09,12.84 -10.54,23.29 -23,23 l -20,0 c -12.98,0.29 -23.44,-10.16 -23,-23 l 0,-29 -139,-96 135,-96 -110,0 c 0,0 -12.48,1.805 -26,-11 l -16,-16 -537,0 c 0,0 -34.176,0.137 -43,-36 l -46,-184 0,-246 137,0 0,-26 81,0 c 0,0 2.98,-54.215 56,-54 53.28,-0.215 57,54 57,54 l 76,0 c 0,0 3.12,-54.215 56,-54 53.42,-0.215 57,54 57,54 l 590,0"
         style="fill:#000000;fill-opacity:1;fill-rule:nonzero;stroke:none"
         id="path18"
         inkscape:connector-curvature="0" /><path
         d="m 1419.25,688.25 c 12.84,-0.172 23.13,10.121 23,23 l 0,105 c 0.13,12.371 -10.16,22.66 -23,23 l -143,0 c -12.84,-0.34 -23.13,-10.629 -23,-23 l 0,-105 c -0.13,-12.879 10.16,-23.172 23,-23 l 143,0"
         style="fill:#ffffff;fill-opacity:1;fill-rule:nonzero;stroke:none"
         id="path20"
         inkscape:connector-curvature="0" /><path
         d="m 907.25,688.25 c 13.023,-0.172 23.312,10.121 23,23 l 0,105 c 0.312,12.371 -9.977,22.66 -23,23 l -39,-1 c -21.094,0.094 -24,-22 -24,-22 l -27,-105 c 0.008,-12.879 10.301,-23.172 23,-23 l 67,0"
         style="fill:#ffffff;fill-opacity:1;fill-rule:nonzero;stroke:none"
         id="path22"
         inkscape:connector-curvature="0" /><path
         d="m 1196.25,469.25 c 12.49,0 22.78,10.293 23,23 l 0,324 c -0.22,12.371 -10.51,22.66 -23,23 l -63,0 c -12.65,-0.34 -22.95,-10.629 -23,-23 l 0,-324 c 0.05,-12.707 10.35,-23 23,-23 l 63,0"
         style="fill:#ffffff;fill-opacity:1;fill-rule:nonzero;stroke:none"
         id="path24"
         inkscape:connector-curvature="0" /><path
         d="m 1059.25,469.25 c 13.05,0 23.34,10.293 23,23 l 0,324 c 0.34,12.371 -9.95,22.66 -23,23 l -62,0 c -13.094,-0.34 -23.383,-10.629 -23,-23 l 0,-324 c -0.383,-12.707 9.906,-23 23,-23 l 62,0"
         style="fill:#ffffff;fill-opacity:1;fill-rule:nonzero;stroke:none"
         id="path26"
         inkscape:connector-curvature="0" /><path
         d="m 1570.25,1124.25 134,-94 -134,-96 -135,96 135,94"
         style="fill:#ffffff;fill-opacity:1;fill-rule:nonzero;stroke:none"
         id="path28"
         inkscape:connector-curvature="0" /><path
         d="m 1720.25,688.25 c -12.36,-0.172 -22.65,10.121 -23,23 l 0,105 c 0.35,12.371 10.64,22.66 23,23 l 144,0 c 12.32,-0.34 22.61,-10.629 23,-23 l 0,-105 c -0.39,-12.879 -10.68,-23.172 -23,-23 l -144,0"
         style="fill:#ffffff;fill-opacity:1;fill-rule:nonzero;stroke:none"
         id="path30"
         inkscape:connector-curvature="0" /><path
         d="m 2232.25,688.25 c -12.55,-0.172 -22.84,10.121 -23,23 l 0,105 c 0.16,12.371 10.45,22.66 23,23 l 40,-1 c 20.57,0.094 23,-22 23,-22 l 27,-105 c 0.46,-12.879 -9.82,-23.172 -23,-23 l -67,0"
         style="fill:#ffffff;fill-opacity:1;fill-rule:nonzero;stroke:none"
         id="path32"
         inkscape:connector-curvature="0" /><path
         d="m 1944.25,469.25 c -13.02,0 -23.31,10.293 -23,23 l 0,324 c -0.31,12.371 9.98,22.66 23,23 l 62,0 c 13.13,-0.34 23.42,-10.629 23,-23 l 0,-324 c 0.42,-12.707 -9.87,-23 -23,-23 l -62,0"
         style="fill:#ffffff;fill-opacity:1;fill-rule:nonzero;stroke:none"
         id="path34"
         inkscape:connector-curvature="0" /><path
         d="m 2080.25,469.25 c -12.58,0 -22.87,10.293 -23,23 l 0,324 c 0.13,12.371 10.42,22.66 23,23 l 63,0 c 12.57,-0.34 22.86,-10.629 23,-23 l 0,-324 c -0.14,-12.707 -10.43,-23 -23,-23 l -63,0"
         style="fill:#ffffff;fill-opacity:1;fill-rule:nonzero;stroke:none"
         id="path36"
         inkscape:connector-curvature="0" /><path
         d="m 1641.25,688.25 c 13.02,-0.172 23.3,10.121 23,23 l 0,105 c 0.3,12.371 -9.98,22.66 -23,23 l -143,0 c -12.54,-0.34 -22.83,-10.629 -23,-23 l 0,-105 c 0.17,-12.879 10.46,-23.172 23,-23 l 143,0"
         style="fill:#ffffff;fill-opacity:1;fill-rule:nonzero;stroke:none"
         id="path38"
         inkscape:connector-curvature="0" /></g></g></svg>