<!-- Created with Inkscape (http://www.inkscape.org/) -->
<svg xmlns:rdf="http://www.w3.org/1999/02/22-rdf-syntax-ns#" xmlns="http://www.w3.org/2000/svg" xml:space="preserve" height="600" width="680" version="1.1" xmlns:cc="http://creativecommons.org/ns#" xmlns:dc="http://purl.org/dc/elements/1.1/"><metadata><rdf:RDF><cc:Work rdf:about=""><dc:format>image/svg+xml</dc:format><dc:type rdf:resource="http://purl.org/dc/dcmitype/StillImage"/><dc:title/></cc:Work></rdf:RDF></metadata><path fill-rule="evenodd" fill="#ec1d24" d="m635.18,600.21c16.282,0,31.036-8.6262,39.194-22.876,7.631-13.714,7.631-30.984,0-44.722l-295.65-510.31c-8.0019-13.802-22.769-22.298-38.751-22.298-15.979,0-30.732,8.4958-38.734,22.298l-295.14,510.31c-8.1284,13.739-8.1284,31.009,0,44.722,8.1426,14.25,22.909,22.876,39.191,22.876h589.89z"/><path fill-rule="evenodd" fill="#FFF" d="m71.25,540.23h537.99l-269.26-465.51-268.73,465.51"/><path fill-rule="evenodd" fill="#231f20" d="m284.5,268.85,13.746,6.1001-37.165,75.728-14.75-7.1092,25.461-52.35-12.227-6.1001,6.0976-12.204,2.042,1.0161c3.5752,1.5206,9.6765,4.5725,16.795-5.0805"/><path fill-rule="evenodd" fill="#231f20" d="m344.05,314.59c8.1396,4.0644,13.742,12.719,4.5821,32.015-9.6622,19.818-19.858,22.354-29.008,17.792-9.1641-4.0644-13.746-13.714-3.5611-33.531,9.6588-19.32,19.844-19.831,27.988-16.275m6.624-14.222c11.192,5.084,29.009,21.842,13.234,54.369-16.298,33.048-39.208,29.989-51.406,23.896-11.701-5.5956-28.51-21.856-12.213-54.891,15.774-32.519,39.688-28.455,50.385-23.374"/><path fill-rule="evenodd" fill="#231f20" d="m412.25,335.44c3.5611,2.0251,6.1154,6.0931,2.0455,14.734-4.5821,9.1379-9.1641,10.158-13.238,8.1182-4.0699-2.0251-6.61-6.0931-2.0279-15.245,4.568-8.6262,9.6622-9.1344,13.22-7.6066m3.0524-6.0896c5.0908,2.0251,13.249,9.646,6.1118,24.888-7.6309,14.72-18.311,13.714-23.405,10.669-5.6172-2.5368-13.249-10.172-6.1118-24.891,7.645-15.27,18.325-13.216,23.405-10.666"/><path fill-rule="evenodd" fill="#231f20" d="m430.58,395.39c3.5611,2.0428,6.1118,5.5956,2.042,14.748-4.0699,9.152-9.1642,10.172-13.249,8.1324-4.0699-2.0251-6.1012-6.6153-1.5191-15.245,4.568-9.1485,9.1641-9.1485,12.725-7.6349m3.0489-6.587c5.0944,2.5368,13.234,10.143,6.1154,24.891-7.6309,15.241-17.816,13.728-23.419,11.191-5.589-2.5368-13.22-10.172-6.1012-25.414,7.6309-14.748,18.838-13.216,23.405-10.669"/><path fill-rule="evenodd" fill="#231f20" d="m363.4,401.49-3.063-1.5312,98.754-51.818,9.6622,5.07-98.742,51.324-3.0489-1.5171-3.5611-1.5278"/><path fill-rule="evenodd" fill="#231f20" d="m574.1,519.92-468.75,0,102.82-178.39,365.92,178.39"/><path stroke-linejoin="miter" d="m574.1,519.92-468.75,0,102.82-178.39,365.92,178.39z" stroke="#231f20" stroke-linecap="butt" stroke-miterlimit="10" stroke-dasharray="none" stroke-width="0.50839043" fill="none"/></svg>
