<?xml version="1.0" encoding="UTF-8" standalone="no"?>
<!-- Created with Inkscape (http://www.inkscape.org/) -->

<svg
   xmlns:dc="http://purl.org/dc/elements/1.1/"
   xmlns:cc="http://creativecommons.org/ns#"
   xmlns:rdf="http://www.w3.org/1999/02/22-rdf-syntax-ns#"
   xmlns="http://www.w3.org/2000/svg"
   xmlns:sodipodi="http://sodipodi.sourceforge.net/DTD/sodipodi-0.dtd"
   xmlns:inkscape="http://www.inkscape.org/namespaces/inkscape"
   version="1.1"
   width="360.26767"
   height="318.20004"
   id="svg2816"
   xml:space="preserve"
   inkscape:version="0.48.4 r9939"
   sodipodi:docname="AJAX.svg"><metadata
     id="metadata81"><rdf:RDF><cc:Work
         rdf:about=""><dc:format>image/svg+xml</dc:format><dc:type
           rdf:resource="http://purl.org/dc/dcmitype/StillImage" /><dc:title></dc:title></cc:Work></rdf:RDF></metadata><sodipodi:namedview
     pagecolor="#ffffff"
     bordercolor="#666666"
     borderopacity="1"
     objecttolerance="10"
     gridtolerance="10"
     guidetolerance="10"
     inkscape:pageopacity="0"
     inkscape:pageshadow="2"
     inkscape:window-width="1920"
     inkscape:window-height="1057"
     id="namedview79"
     showgrid="false"
     fit-margin-top="0.1"
     fit-margin-left="0.1"
     fit-margin-right="0.1"
     fit-margin-bottom="0.1"
     inkscape:zoom="1.4142136"
     inkscape:cx="-91.069743"
     inkscape:cy="165.4447"
     inkscape:window-x="-8"
     inkscape:window-y="-8"
     inkscape:window-maximized="1"
     inkscape:current-layer="svg2816"
     showguides="true"
     inkscape:guide-bbox="true" /><defs
     id="defs2820"><clipPath
       id="clipPath2832"><path
         d="m -0.24,595.138 317.48,0 0,-595.276 -317.48,0 0,595.276 z"
         id="path2834"
         inkscape:connector-curvature="0" /></clipPath><clipPath
       id="clipPath2840"><path
         d="m 0.03,595.32 317.46,0 0,-595.32 -317.46,0 0,595.32 z"
         id="path2842"
         inkscape:connector-curvature="0" /></clipPath><clipPath
       id="clipPath2858"><path
         d="m -0.24,595.138 317.48,0 0,-595.276 -317.48,0 0,595.276 z"
         id="path2860"
         inkscape:connector-curvature="0" /></clipPath><clipPath
       id="clipPath2864"><path
         d="m 0.03,595.32 317.46,0 0,-595.32 -317.46,0 0,595.32 z"
         id="path2866"
         inkscape:connector-curvature="0" /></clipPath><clipPath
       id="clipPath3306"><path
         d="m 199.238,472.977 0,-29.74 29.744,0 0,29.74"
         id="path3308"
         inkscape:connector-curvature="0" /></clipPath><clipPath
       id="clipPath3322"><path
         d="m -0.24,595.138 317.48,0 0,-595.276 -317.48,0 0,595.276 z"
         id="path3324"
         inkscape:connector-curvature="0" /></clipPath><clipPath
       id="clipPath3330"><path
         d="m 0.03,595.32 317.46,0 0,-595.32 -317.46,0 0,595.32 z"
         id="path3332"
         inkscape:connector-curvature="0" /></clipPath><clipPath
       id="clipPath3344"><path
         d="m 88.233,387.221 0,-28.335 32.08,0 0,28.335"
         id="path3346"
         inkscape:connector-curvature="0" /></clipPath><clipPath
       id="clipPath3462"><path
         d="m -0.24,595.138 317.48,0 0,-595.276 -317.48,0 0,595.276 z"
         id="path3464"
         inkscape:connector-curvature="0" /></clipPath><clipPath
       id="clipPath3470"><path
         d="m 0.03,595.32 317.46,0 0,-595.32 -317.46,0 0,595.32 z"
         id="path3472"
         inkscape:connector-curvature="0" /></clipPath><clipPath
       id="clipPath3490"><path
         d="m -0.24,595.138 317.48,0 0,-595.276 -317.48,0 0,595.276 z"
         id="path3492"
         inkscape:connector-curvature="0" /></clipPath><clipPath
       id="clipPath3496"><path
         d="m 0.03,595.32 317.46,0 0,-595.32 -317.46,0 0,595.32 z"
         id="path3498"
         inkscape:connector-curvature="0" /></clipPath><clipPath
       id="clipPath3520"><path
         d="m 254.788,326.215 0,-28.309 28.326,0 0,28.309"
         id="path3522"
         inkscape:connector-curvature="0" /></clipPath><clipPath
       id="clipPath3544"><path
         d="m 145.049,326.142 0,-28.333 28.342,0 0,28.333"
         id="path3546"
         inkscape:connector-curvature="0" /></clipPath><clipPath
       id="clipPath3682"><path
         d="m -0.24,595.138 317.48,0 0,-595.276 -317.48,0 0,595.276 z"
         id="path3684"
         inkscape:connector-curvature="0" /></clipPath><clipPath
       id="clipPath3690"><path
         d="m 0.03,595.32 317.46,0 0,-595.32 -317.46,0 0,595.32 z"
         id="path3692"
         inkscape:connector-curvature="0" /></clipPath><clipPath
       id="clipPath3980"><path
         d="m -0.24,595.138 317.48,0 0,-595.276 -317.48,0 0,595.276 z"
         id="path3982"
         inkscape:connector-curvature="0" /></clipPath><clipPath
       id="clipPath3988"><path
         d="m 0.03,595.32 317.46,0 0,-595.32 -317.46,0 0,595.32 z"
         id="path3990"
         inkscape:connector-curvature="0" /></clipPath><clipPath
       id="clipPath4010"><path
         d="m -0.24,595.138 317.48,0 0,-595.276 -317.48,0 0,595.276 z"
         id="path4012"
         inkscape:connector-curvature="0" /></clipPath><clipPath
       id="clipPath4016"><path
         d="m 0.03,595.32 317.46,0 0,-595.32 -317.46,0 0,595.32 z"
         id="path4018"
         inkscape:connector-curvature="0" /></clipPath><clipPath
       id="clipPath4062"><path
         d="m 200.163,177.773 0,-28.284 28.283,0 0,28.284"
         id="path4064"
         inkscape:connector-curvature="0" /></clipPath><clipPath
       id="clipPath4090"><path
         d="m 34.886,177.515 0,-51.632 30.367,0 0,51.632"
         id="path4092"
         inkscape:connector-curvature="0" /></clipPath><clipPath
       id="clipPath4106"><path
         d="m 34.886,177.515 0,-51.632 30.367,0 0,51.632"
         id="path4108"
         inkscape:connector-curvature="0" /></clipPath><clipPath
       id="clipPath4272"><path
         d="m 34.886,177.515 0,-51.632 30.367,0 0,51.632"
         id="path4274"
         inkscape:connector-curvature="0" /></clipPath><clipPath
       id="clipPath4304"><path
         d="m 254.653,176.442 0,-48.167 28.317,0 0,48.167"
         id="path4306"
         inkscape:connector-curvature="0" /></clipPath><clipPath
       id="clipPath4310"><path
         d="m 253.565,177.983 31.181,0 0,-49.183 -31.181,0 0,49.183 z"
         id="path4312"
         inkscape:connector-curvature="0" /></clipPath><clipPath
       id="clipPath4316"><path
         d="m -0.24,595.138 317.48,0 0,-595.276 -317.48,0 0,595.276 z"
         id="path4318"
         inkscape:connector-curvature="0" /></clipPath><clipPath
       id="clipPath4322"><path
         d="m 0.03,595.32 317.46,0 0,-595.32 -317.46,0 0,595.32 z"
         id="path4324"
         inkscape:connector-curvature="0" /></clipPath><clipPath
       id="clipPath4456"><path
         d="m -0.24,595.138 317.48,0 0,-595.276 -317.48,0 0,595.276 z"
         id="path4458"
         inkscape:connector-curvature="0" /></clipPath><clipPath
       id="clipPath4464"><path
         d="m 0.03,595.32 317.46,0 0,-595.32 -317.46,0 0,595.32 z"
         id="path4466"
         inkscape:connector-curvature="0" /></clipPath></defs><path
     style="fill:#ec1d24;fill-opacity:1;fill-rule:evenodd;stroke:none"
     d="m 23.977595,318.10005 c -8.5855,0 -16.45648,-4.5216 -20.6875,-11.90625 -4.25346,-7.37342 -4.25346,-16.47912 0,-23.875 L 159.44632,11.975043 c 4.27594,-7.3733997 12.09804,-11.87498967 20.59376,-11.87498967 0.0312,0 0.0625,-1.2e-4 0.0937,0 0.0312,-1.2e-4 0.0625,0 0.0937,0 8.49572,0 16.31784,4.50157997 20.59375,11.87498967 L 356.97757,282.3188 c 4.25347,7.39588 4.25347,16.50158 0,23.875 -4.23102,7.38465 -12.10199,11.90625 -20.6875,11.90625 z"
     id="path3101"
     inkscape:connector-curvature="0"
     sodipodi:nodetypes="scccscscccss" /><path
     inkscape:connector-curvature="0"
     style="fill:#ffffff;fill-opacity:1;fill-rule:evenodd;stroke:none"
     id="path3121"
     d="m 37.755005,286.28316 284.757825,0 L 180.13384,39.806513 z"
     sodipodi:nodetypes="cccc" /><path
     inkscape:connector-curvature="0"
     style="fill:#000000;fill-rule:nonzero;stroke:none"
     d="m 224.19057,162.86371 c -1.36311,-1.00483 -2.01432,-1.33277 -2.33408,-3.50112 0.0257,-1.07134 -0.37463,-4.0403 -0.29178,-4.3764 -0.39213,0.0257 -1.80891,-0.55085 -3.20936,1.16704 0,0 -2.63167,3.68784 -2.62584,3.79288 0,0 -3.44045,-0.37113 -6.41873,0.58352 -0.54968,0.0829 -0.43531,0.28709 -0.29176,0.29176 -0.14355,0.17156 -0.0759,0.48315 0.58352,0.58352 0.44815,-0.19023 1.55566,-0.43298 1.45881,0 0.16221,0.43064 -0.0572,0.43064 -0.29176,0.58352 -0.0759,0.11204 -0.96399,0.62319 -1.45881,0.87528 -0.7294,0.0817 -1.91862,0.0572 -3.50112,1.75057 0,0 2.2022,0.12369 2.33408,0 0,0 -0.84027,1.27557 -2.62584,1.16704 -3.26948,0.10853 -6.12056,2.28622 -6.41814,2.9176 -0.23807,0.2264 -0.41546,0.35944 -0.58352,0.29176 -0.18674,0.0677 -1.58135,0.0677 -1.75056,0 -0.1424,0.11087 -0.34078,0.2439 -0.29176,0.29176 -0.049,0.21823 0.0175,0.35127 0.29176,0.29176 0.52399,0.10387 1.07718,0.19373 1.16704,0.58352 -0.0467,0.36294 -0.6874,0.53916 -0.87528,0.58352 -0.0782,-0.0444 -2.73673,0.62086 -2.9176,3.50112 0,0 3.03897,-1.04101 3.20936,-1.16704 0.27191,0.0374 0.89044,0.0151 0.87528,0.29176 0.0607,0.54268 -0.0712,0.56484 -0.29176,0.58352 -2.69355,1.27675 -2.69821,0.90329 -4.95992,2.91761 -0.31394,0.16572 -1.75407,1.58366 -4.3764,1.4588 0,0 0.47263,2.16368 0.58352,2.33408 0,0 -3.05767,1.88944 -4.08465,3.20936 0,0 2.00146,0.58468 4.08465,0 0,0 -4.89692,3.35524 -12.25393,3.50112 -8.75049,-0.14588 -22.75264,-9.58375 -32.67715,-9.62808 -7.93122,0.0443 -13.71273,4.95992 -13.71273,4.95992 0,0 -3.43578,-1.59302 -7.29401,-1.4588 -9.42386,-0.13422 -18.51594,8.19613 -20.71557,20.13146 -1.2275,6.33818 -4.424245,13.64503 -9.919835,17.21384 -4.41633,3.03897 -5.10581,5.61229 -5.25169,9.33633 0.14588,0.99664 0.20516,2.94561 2.33408,2.9176 0.64736,0.028 0.99268,-0.3968 1.45881,-0.87528 -1.45087,1.29892 17.607025,-11.16508 21.882005,-33.26066 0.86769,-5.33221 4.42717,-9.85216 9.92044,-9.91985 1.06317,0.0677 2.33408,0.24508 2.33408,0.87528 0,0.43414 -0.29643,0.58236 -0.58352,0.87529 -0.24392,0.29641 -3.55248,4.04846 -3.50112,9.91984 -0.0514,6.93455 3.06348,8.26498 3.20936,11.37864 -0.14588,2.82308 -2.09368,5.70333 -5.54344,5.83521 -3.3751,-0.13188 -5.19217,-0.0875 -6.12756,0.29176 -1.10203,0.15171 -3.45095,1.12736 -3.50112,3.20936 0.0502,1.90578 0.62565,9.21729 0.58352,10.21161 0.0421,3.39025 -0.59601,11.06238 -1.16704,13.71274 -0.0752,0.58118 -0.16409,1.64436 0.58352,2.04232 0.58119,0.53217 0.62565,0.97447 0.29176,1.4588 -0.24159,0.49016 -0.66335,1.08885 -1.4588,1.16704 -0.79896,-0.12254 -4.23286,-0.27776 -5.25169,-0.58352 l -4.084635,9.04457 c 0,0 1.402905,0.43414 4.084635,-0.58352 3.04073,-1.13437 5.96511,-2.59667 8.75281,-4.37641 0.86956,-0.46566 2.22147,-0.97681 2.91819,-4.08464 1.26156,-5.31237 1.90695,-12.21075 1.75056,-17.21386 -0.1949,-4.13249 1.88711,-5.198 5.54345,-4.95992 5.45592,0.59051 9.62342,0.16105 11.67041,-0.58352 0.69204,-0.11087 2.33175,-0.86478 2.9176,0 0.7434,0.64187 0.34427,1.08534 0,1.4588 -1.97698,2.41227 -3.60732,4.46976 -4.66816,7.294 -0.96281,2.08901 -0.41547,3.41709 2.9176,4.66817 4.56196,1.38061 14.28107,9.04224 17.21385,15.46329 1.14369,2.31425 2.16253,2.49864 3.50113,2.91761 0.65471,0.0794 1.85092,0.47847 2.04232,1.4588 -0.0129,0.87995 -0.14588,2.56515 0,3.20936 l 9.62809,3.50112 c 0,0 1.26972,-4.11149 -2.04232,-7.87752 -3.77189,-4.28422 -13.88313,-14.98714 -18.3809,-18.67266 -3.55364,-2.75655 -2.20805,-5.10581 0,-7.29401 1.95362,-1.97463 5.66598,-7.11895 6.71049,-9.91985 1.09001,-2.53599 2.84173,-3.68901 5.8352,-2.33408 5.42674,2.47296 18.66332,6.27517 25.09138,7.29401 3.00162,0.32909 2.45545,1.51482 2.04232,2.9176 -0.53801,2.84991 -1.63037,6.53543 -3.20936,8.46105 -0.077,0.28242 -0.23341,0.57068 -0.29176,1.16704 1.33625,11.54087 -2.76824,19.24334 -4.95992,22.17378 -0.496,0.73639 -0.27543,1.26741 0,1.4588 0.99664,0.76324 2.16017,2.34108 1.75056,4.95993 -0.29645,0.74223 -1.00717,3.88973 -1.16704,4.08464 l 11.08689,4.66816 c 0,0 0.73521,-2.12869 -2.33409,-6.12696 -0.57186,-0.55319 -2.7869,-2.7694 -2.9176,-7.58577 0.1307,-5.1093 13.64503,-34.02975 14.58801,-35.59475 2.36326,-3.02732 5.48917,-3.84658 9.04398,-2.62584 4.1605,1.77857 9.87549,3.57464 13.42097,5.8352 0.81693,0.42364 1.2289,0.95581 0.29176,1.4588 -0.71772,0.56018 -11.94233,7.8857 -12.25393,8.16929 -0.28009,0.19023 -1.055,0.65471 -1.75056,0.58352 -0.45515,0.0269 -1.38645,0.18206 -2.04231,1.4588 -0.54151,1.20438 -2.09193,1.84742 -3.20877,0.58353 -1.05501,-0.99666 -2.33409,-2.33409 -2.33409,-2.33409 0,0 -2.72972,1.18222 -7.00224,7.58577 0,0 0.63836,0.84144 2.62584,0.87528 2.0003,-0.0338 8.09342,-0.0338 8.75222,0 1.77623,-0.13538 3.40542,-0.74458 4.95992,-2.04232 0.45164,-0.20657 18.9971,-12.68107 19.54794,-13.12922 2.22788,-1.33744 5.23768,-4.64832 0.58352,-8.16928 -0.95931,-0.68739 -6.1433,-4.89692 -15.75505,-9.33633 0,0 0.61735,-2.51731 0.87528,-2.9176 0.27424,-0.57536 0.71773,-2.16953 0.58352,-2.62585 -0.0444,-0.43064 0.13421,-0.96165 0.29176,-1.16704 0.0199,-0.41546 0.15172,-1.43429 0,-1.75056 0.0618,-0.57068 0.63954,-4.02629 1.16704,-4.95991 0.62553,-1.01651 2.13218,-4.20602 2.33408,-4.66817 0.0618,-0.60102 1.43662,-4.0578 1.75056,-4.95992 0.48315,-0.69323 1.41329,-2.82075 1.45881,-3.20936 0.30926,-0.58469 0.53216,-2.18121 3.20936,-1.45881 2.81607,0.96165 4.94358,0.87412 5.8352,0.87529 0.9698,-0.26842 2.74137,-0.57887 4.08465,0.29176 1.22771,0.81459 4.19668,2.5418 4.95992,2.9176 1.6747,0.48549 2.09834,0.65471 3.50112,-0.29176 0.47732,-0.3046 1.80541,-1.28026 0.58352,-2.04232 -0.99316,-0.92197 -2.05632,-1.49848 -2.62584,-1.75057 -0.40496,-0.10153 -0.74691,-0.14472 -0.58352,-0.58352 -0.0444,-0.75857 1.41678,-0.71423 2.04232,-0.58352 1.09469,0.44114 2.07849,1.2429 2.33409,1.4588 0.3641,0.4038 1.69453,0.66989 2.33408,0 1.2499,-1.4553 0.42597,-3.48245 -0.58352,-4.66816 -0.49951,-0.55551 -7.54376,-6.89138 -8.16929,-7.29401 -1.43896,-1.18571 -3.24905,-3.0915 -3.79288,-4.3764 -0.2801,-0.36178 -0.94531,-1.02583 -1.16704,-1.4588 -0.48667,-0.18789 -9.70396,-6.87855 -9.91985,-7.00225 z"
     id="path15" /></svg>